<mxfile host="app.diagrams.net" agent="Mozilla/5.0 (Windows NT 10.0; Win64; x64) AppleWebKit/537.36 (KHTML, like Gecko) Chrome/130.0.0.0 Safari/537.36 OPR/115.0.0.0" version="25.0.3">
  <diagram name="PÃ¡gina-1" id="w3jrHd74cgy68z_nieg8">
    <mxGraphModel dx="1380" dy="739" grid="1" gridSize="10" guides="1" tooltips="1" connect="1" arrows="1" fold="1" page="1" pageScale="1" pageWidth="827" pageHeight="1169" math="0" shadow="0">
      <root>
        <mxCell id="0" />
        <mxCell id="1" parent="0" />
        <mxCell id="VEx_6JtmXYtKarDa4OtJ-1" value="" style="rounded=1;whiteSpace=wrap;html=1;dashed=1;fillColor=#f5f5f5;fontColor=#333333;strokeColor=#666666;" vertex="1" parent="1">
          <mxGeometry x="340" y="170" width="640" height="410" as="geometry" />
        </mxCell>
        <mxCell id="VEx_6JtmXYtKarDa4OtJ-2" value="Cliente" style="shape=umlActor;verticalLabelPosition=bottom;verticalAlign=top;html=1;outlineConnect=0;" vertex="1" parent="1">
          <mxGeometry x="30" y="370" width="30" height="60" as="geometry" />
        </mxCell>
        <mxCell id="VEx_6JtmXYtKarDa4OtJ-3" value="" style="rounded=0;whiteSpace=wrap;html=1;fillColor=#fff2cc;strokeColor=#d6b656;" vertex="1" parent="1">
          <mxGeometry x="420" y="220" width="180" height="60" as="geometry" />
        </mxCell>
        <mxCell id="VEx_6JtmXYtKarDa4OtJ-4" value="" style="rounded=0;whiteSpace=wrap;html=1;fillColor=#fff2cc;strokeColor=#d6b656;" vertex="1" parent="1">
          <mxGeometry x="420" y="340" width="180" height="60" as="geometry" />
        </mxCell>
        <mxCell id="VEx_6JtmXYtKarDa4OtJ-5" value="" style="rounded=0;whiteSpace=wrap;html=1;fillColor=#fff2cc;strokeColor=#d6b656;" vertex="1" parent="1">
          <mxGeometry x="420" y="470" width="180" height="60" as="geometry" />
        </mxCell>
        <mxCell id="VEx_6JtmXYtKarDa4OtJ-6" value="ms_cliente" style="text;html=1;align=center;verticalAlign=middle;whiteSpace=wrap;rounded=0;" vertex="1" parent="1">
          <mxGeometry x="480" y="235" width="60" height="30" as="geometry" />
        </mxCell>
        <mxCell id="VEx_6JtmXYtKarDa4OtJ-7" value="ms_creditos" style="text;html=1;align=center;verticalAlign=middle;whiteSpace=wrap;rounded=0;" vertex="1" parent="1">
          <mxGeometry x="480" y="355" width="60" height="30" as="geometry" />
        </mxCell>
        <mxCell id="VEx_6JtmXYtKarDa4OtJ-8" value="ms_cuentas_bancarias" style="text;html=1;align=center;verticalAlign=middle;whiteSpace=wrap;rounded=0;" vertex="1" parent="1">
          <mxGeometry x="430" y="485" width="160" height="30" as="geometry" />
        </mxCell>
        <mxCell id="VEx_6JtmXYtKarDa4OtJ-9" value="" style="endArrow=none;html=1;rounded=0;" edge="1" parent="1" source="VEx_6JtmXYtKarDa4OtJ-3" target="VEx_6JtmXYtKarDa4OtJ-10">
          <mxGeometry width="50" height="50" relative="1" as="geometry">
            <mxPoint x="670" y="250" as="sourcePoint" />
            <mxPoint x="720" y="200" as="targetPoint" />
          </mxGeometry>
        </mxCell>
        <mxCell id="VEx_6JtmXYtKarDa4OtJ-10" value="" style="shape=cylinder3;whiteSpace=wrap;html=1;boundedLbl=1;backgroundOutline=1;size=15;" vertex="1" parent="1">
          <mxGeometry x="840" y="205" width="80" height="90" as="geometry" />
        </mxCell>
        <mxCell id="VEx_6JtmXYtKarDa4OtJ-11" value="" style="shape=image;verticalLabelPosition=bottom;labelBackgroundColor=default;verticalAlign=top;aspect=fixed;imageAspect=0;image=data:image/png,iVBORw0KGgoAAAANSUhEUgAAAWgAAAFoBAMAAACIy3zmAAAAJ1BMVEXu7u7///9GpDhBlzJSrENPNyqTeF5hslE8IhSDZ03U08i5uaSin4YOJcVIAAAaAklEQVR42uydy2ocSRaGVXLDbFNuQ0GVFnZEgGFWcoSgQNainRmQrzNSJdTzaNSr2ZW1mLVaLzZxLhEZeSkvWjJxknFKLbcMbT7//HFucVJ9dkFPdUbPIr49+wX9C/oX9C/oX9D/n9Cr/ywR+r9LhP6+ROi/jguE7j4tD3rT3v48aH5W/Ptv9u22dauf8yenb9/+j/6t1c+Lg+4O+qpaGPT286HZLQ36z/bQuIdlQVf+cGj03bKgf2sPh72+qZYEvQlCH+7VblHQwdEB2rrjgqBR6EOj9MdqOdDfQeigtN0tB3prgPlQKwX+WAg0Ct2C0vprtRBoFjpED61CflkENAkN0Fpp/c/qZ0C/eT0dqg4wBxzEQG1Xi2gCotCotHIflwDNju5IaaWvVwuA5tARnn1ADlL/UYmHjqGDkgtgR6kFQ38na3QY8kDpJLVc6E0SGpOLVSHB7FbCoT/07gjQSlkIIHeVbOh7j6cQD2IH5gjUenchGnprfK90B0qjq59FQ//bd206iJ2C8KGobJILXdXet72nHRCjq4+Codem69oUPTrIiAqyIna4UqG/B6E9J3H0tA6WxsC3Egu9MW3rPREjNFgaHuv+VUmdmv7pg9Jt20cPzY/St2KbgPsWlMYw3XHIoweOolDoS+NDxItKt7nSVt8IhQ5BuvOdb/PkEpW2ViZ0ZVpU2h/6NB6VDlnxTiT02gSlgTspHYWGqEdZURz0X0Hk8AGfpPU9wOKjaJggD3oDx3CotI6WhqCnuRcQBf0BMwt4Opam90plSutbgdBPgAzRo/Mx5GmdPN37QxR0TXYG6ljloTEoI8Lnx0oa9Pb6s++GMa+vPaiD2YmDPjegMSndpuSS4jR0MG9+2fXqP+vFGyRuo6dRaZs8Ddx/VLKgKxUqPFC5Q2oKIDaGD+5gbt8M+m3K3LWpKbOAseNJDHmwoThNX9xKVBOwejS+xojXtdy8ADSUd2jpWH/Igr73BjoA+Oy4IQd76MzSUH+Igt5ek9J8FtukdAwelBWtKOh/mKB03XLUixVTaGhjmOb64ygIevUEzN4PlYbkwo1LrPSuBEHDkMZQzENP+9TYktJNNPZOEPTlNShdty0Xpz41trFF5BASgp4U6JDDwdPexOKjG2ZE2wfrOznQe3BHAKfGJZq6ixmRv4LoN2KgN8qT0jG9dDxCIKW5qsZgvRMDvUZgbyi5tHGMED2tdIohodKTAg2W9mjrjtI4FXqg9LVlS/P4VN9JgX5CZBC75ZDXJaUDaNO3L4rWmiRA7330B+rsOVCjp4PWNnna0tqKhKnpxhqKHjXqjMVpG6OH0qmoRnr3IKMJuLSGM2LdcW+bKR2Dh+ZMcycD+pwNjUrjDKHDk0ietjazdPiNKxHQq0elKLeYmpoArvMOVCcpm1naqlsZ0HtV8znk6MFKH7j2J1s0pLR1IqArZWJGNIbiNHdcFptEtgXX1Apq6vLQW6tqOIXg7DSvwfABh9DyAVSxK3ffJECvbR2iXQ3Y4SvPa1BpTbMlO6ipQ81UHjo04qpWIdxxaxvnTNgj4mypGdbUOwnQL8Ed2CKiQUjnDsOHooRihzW1WwmwRx2VhuzS5v6wFOdUVlODqY/loTdwDhW2WxBDOuoTMXxwjdTX1OSQb+Wh1zYoXWMzbmLJxNUHRY6spibum+LQq3MQGoqlnrpjpceW5pnNbXnoJxA6mJqZ2+hqUHpqaZxDlp+ahiQehDZ8Eg3lF4p5M5ZGwxxLNwEVWloprE4NMXfcvGBmubaWv0Sl6U2SktBbG06hoRIPlP4M1TSHj7GlydPWXZWGDkkc/KHAH5gUocajqEdKo5vT3Qt+efUe1muhf1eQEMM/IDQkxbaNufygoqXVNY9P6btdaehH5SFMY0mNBuEbDJgyKeprQek+TjfOudL22Ct0R40lNRqk5eTigz1sDB4kcSidHDzH4tAmKc0hL+aXg+7zIXw0COwC911Z6Mqyp0lpCHtdpD40mlpDdDMRW6S+Kgu9AWj0B6UXWmPibQSMdVYZ6+KjnYVvXrtb+EroS5CxhgdkptPY8S5TSycvSmzBGBrF3pWFXqM98CxCnI4dOd0JJBs7bckYGn9xtiz0+6ClIVd7Vrpt48hXk8TaJjvT9w6u9gtCPyI0ZhfDSn/2XH202kVgbcnO2toY8wpCPyn0NDYvpDTvjAE4ipuU1pnS30pOTUNXC9Boa0wteF3E2wiZ0tZhzEPB4flSsglY7QHakD08F9QU78JhHCptM6fcFO1cLNuD0gu2toZ3VTo/8LTNlf5aEnqD0NhwxXmv502ETGkgt9HUCH4tADrYgxM55PKWx9StdrY/fk5nSruS0JfckpCrydOGx72+S8pSxZF52q0KQq8JGmOeocqUbpuxPtVJWfoVojQrfRQAjXWe8TzPiwNf7bLDx8GDv78rCH1O7qBAXdfU2xreRug9HcNe7+mC0HDdQpZW1AewQegao9WDMJeiH/zGFwHQWDQpmtd4SuRsD92D9nnGuauC0E8qUmMiR0/T6BSoG6pFtcuUZvCvAqDR0oZWVaLS3jdckNrkkVQ7lYTeR2iYnCoT+0Ty9KGxWdRgcFZ6JwE6BQ/sA/hirsFeherokdK7glPTJvc03AcYPow4gWy4K8wK6XQYCzYB8Z2QFPMCc01rY6Q0V3hZoOZ+oCB0emeIultPFwKeF8AheujUHeZhT7tVMegqQXtuXiIzXgYkpUc9F/zrQzHoTYLGyRg6Go5j3WHt0dhYKfXhIx7JowBoRCZXIzbWpk2M0nl9x1KXg97a/CRiSqS4hxVTq53LWTU1MTRGeC4GfZkpbXiMQHNq3O3VfZDTA6WxzCsPHasP6m3pTYyub2yzHgbF1gWVXg9DHje3eAVKGZFjnCilc2iqPuJsHVd7dRrg9ZW0Ta1LKegPY3vwMhNVTBQ9GFSO0hk0hTxDYwTqyKHKs1NPU6L5Vgz6faY0D6nTzUtee2g7OJHwiICmJkDRzhjNxrq905kp+thBTWKpqenIHoounEnpED8aGtFobXOl6a/xqVgTkEMbxdmFI0iIH43LwwfL7Gi296UY9HqitGLmGoqPPZWhQ0/zrzKgY0Meb+ZY6UHnYmnmi56WAd0nctx3Q6UtmZrHvbnW5Tyd1R7p4jZ52rfNIMylfI5/lU8ilKaJXowesJTcNen0DeI0GuabIKUxRtOqPYQ8PVI6dS9v8vMc/t5/vM2hDTe38bYIlc5y9zAjSoHmMQJ6uoZLjMZp3R+9rMiTpHRqXnDHhpTm9mqi9LMM6BipeTpmWt97Wo+KPF1Q6c0weqTmBWfrMOpNc7z8mittBBW6vhhCD5sX3/VK274Z51hdEFqN7EGjUxyuexwh6OxKbvC8DvpVszythtmFRqc8G+uvL5y1We2BVik3rLnYj5Wm6yJ6FaNrbHZTNKryVkKg6SRmSjcp1GHFEXMMfi046n1S45NI10WYYro0YdLZLQYbpiD0o5ocRVpaB5McGjfYX9JZ+LuuykG/myhNS+tk7PwSTg/Cn9sVhP5dzZ5EHPfWXsc1INqcsP0Fl7stCL0e53FuE+m2KJul05pKf0X3VQx0X1LTOkJfkCbqaO6bgtDDiqlvbunqFuvptPTB13Nk7quC0aOy05PIrW1oYLIqT/M+EH+EFrHgMuGc0jzQQ6VjdxUtzTYPlWlB6GFKNDFQg861p25c00pv+sS/w3Pxtc2BQYZK84jJxtXpmBcfSi/IDpSG0Sm9HgBxOt0F2HgK0S+h9Cj5hv65mpRMcWk9xGlijoHapZUxtyu6trmenkS6xYBArbNlD15U1wLWNs+2dlZpWsDizYN+9Sp1L1dFoTezSvP+VV/lOXjpLGu2iq4in62amZjH+73xINrkivxuqyT0yzjm0esjePfSxMjsxs9DWehRG+BpK5l2kuH0WetmnlXZ11XP7SS74HUiiE2ZcO65KAt9aScZkdYngtIniJ27LQw9Ch+K97+x/DjFDK8ElH2buTkR80zsXGaeL6WhX9S0eVHs6VPPXWno6RQhNi+noY8XxX+swHTKVJsfe/qiNPS0TawVvwd6inn3aujX1dPh0adK6pPQxV/Bvrh4OTWwOQn95aw49LvxSeTwcdrTz+Whxyexjhf7J5V+KA89yYnckZ/0NP0gt7LQF82kzqMXuU5B30iAfppU1FSb1j86h6Wh39tp+FDmtNJHCdAzzS2N805An0mAHl/M1fHtsxPFdCUC+mlaM8F7fiegr2RAj0wd94LqH6SW8tDb2UuMU9APMqBHkZovMWr/g9QiAPpxfBIpkf8gtQj4v0FNtsbwx0k1J1ut4k0AfFtNL7nCeZyHfpACPayp+Z2X+YO4uxAD/X5ubWwW+koO9HayzBR6gVl7PK/EQA9uueI7DbPQK0HQ76bLKkbP9rSCoCf+CMaeU/rTmSDoiT/CP81sDpcE/W60/x249WxZKgl6aydbp3q2LJUEPfAHVR/72QpPFHR+j1Hjx8ts0yIKejMwNVQfL7NNiyjovP6gnyb1Mlv//4+9s/dtW0kCOLeIL7FT7Bb2e5FcOQ9Ica7uDjjgrkt7TVIwWAdXxEUE005zSJkmV6xBxS6SIoL07EIqEsTSK6JL4meLLmIEDuxIf9TNzH6QK1FOAth3JBAC74Hk7pC/Hc4OZ2Zp5UKgLyCe1od/GP/7kQnov1/MjYIL/Cdh+U2v3rv0y7vcULpY0NmFDAqZ3uUtABQMOrsmgC7v1ruchbjCQbPH3ky89Z+c5aHiQf/k/SHord8nl2mLB52ZimjS49D/KiZ05q0IM3HZh/6TKCh05c8ZP718lJscFg46LUWipo9ySwfFg0693u2l5ZFfWCostAtAwDz+OLzphR3Fhf7J/YDe0j+Gj71F2uJC21wAItMnw0/eOkuBoa2qb99+MvrkrYZfJPSFxdP60Kr69tIoo+kL+sDj4pMA84+OGFX/sjQavfcC6QJD27Dp9tJw9LsXKhUa+ifzs6Gj0VFW0YWGtlZ962iUPM7GpIWGDqoUgSyPjpJPGUUXHJq9QwNZBk2/z0YdBYemYG95NEyOsuFdwaExrr75ZDQcJrjIwkoCzWEujkZJMnyf/ohY4aHxZT46Ak33Hv+Nl0XTEKL+BeZhkgyOWFAe6OpfAXqYJG1eImjxGzgP0HQ7KBN0dTQ8SgZJcDnQFxxP28MKmnQyuIQrX0IS4A5R00m/XNDsCOZhr2TQwW9oHp2SabqHHo+VTNNzYB290kGDpgdlg66CdZRO0xU0D1Ey6FnUdNmgOZh0t2zQQdIbDMoHnZQQupd0SwfNLhP6kuJpIXpJr305VxaXCD3odksHPVdGTc+VUtPdQQk13et2edmgK4Nu+TRd6ZXQpkup6Wq3jOZRSpvWJl068ygftOi2Z8sHHbQvzaYvLQnAf7m5dJnLJR7+gP4B/QP6B/T49m2t/0/oKmSREHR3e7DhDvN8fBe3gd66QWGgD1v+1hh2hGtd8Ns2OgWBjmpjW6sxsN8UiT2/KWp0CgFdiVotDUS61NhfuGndzzRqalYITfPZ/QbybKD1HkXE1vrITWvQwycRbXSTUYTdovWieA80gqijA6t9om6kv2iziKwY2VVocBErCHSVuMzhdaL+ldvWCjbqkPQQoVcvv2r6TYfIFdlD8RopWx3Xioe6M/HviP9BEvCN0DV3yM9I1e4whWao6kcFgm64Q1bVtpvRdMNAz5iGIkAHnqa1QqPVSfMIcDhRpyDQNQ+a2NB2J6BxP+oXUtOBONNmMG7TNLrCQNeyNg2tC6jR40lNswJB8zHzYOROnk9MRA1dUJtmFEXt5Nh0zbwd86HppcX891e2FR1QVpiJKVj2G5tMayagN52jcWiK7iZtGvd38/x0Bf7HxFzSNlg8Sczr3t6YidlkOPBuLPgX+niwtsH8EVYSuBDPQqN08vZ8mxYLNBMnNI1ms54D3Wsew61O4lg94Hin6zKOV/qetioncA5OWmGUerkNw3sIp+udDDT1VLsM+yyazp70FJumKCnqT9g0nI76Y48UVPUyjvuCr8VhGKoONM/EKgzjTZZVXhNbQ6mO7fMHKQXQJCW3hYOuNmMSr79loiL1U6p60vkuj1GUFB27xl0zYLCaXe5Ds30J95B9caroulsQF8qQdp+nK1SVpgJNxXhfPY9fh0i2JT4o3ffYQsPo1IqEs5J6Z6TxnGLnTEQy5FVn0zreCHiEkbYPXcWLhbLzKpakDdWpyJCoZT2FPlXxTrf3MNajgk0S7NYCyeBZa0unSvVFcKLHEtap85ovHfgWkFppzUGnmob4L1rnY1VT/pCe7xAsLiIFPQdAeLp40n7FyK4peR87o15JqYysItxuwkhp1Mr4jAUl78CVeVND41h86fTvz2zI7PwNOmRw1HSAjYPubLcH+cFGTmL7Ae8fK/AEdCsVq3XGX6Na7precF5ppwId5DM6dULUcf1L0GvSUKidnYZhB688TwYSo964tNL4AJ/x6dBnJjo10DpP165jHFq8wnnzkbIcUtpHuDmd3NK92Q0VPtNdYQ8ISJb0Vu8IDtPNDFDwigo3OaWuKL6/LrT0Uy19RUuLlIudB+3S8d3OZI5YhWvd19aCmtRvUrzrpoE+DeWq6SuNfcA+GRBZDw6QuDgOj6DxSs/0jyc7aW6kp2r60EELq+mGKSJMQAMfguD+G5yTel7Agw41NNxL2nf/AXS447DqehZVzVMhedMKHbe5Gb3U04gzLZ3RtA+952s6GQ5Hnykdd293H9rMjxt6F6F/DulmcOMFYLJ/3Iv2se2gt8xbU+qnAr4jDO/qK18NyVC0tMWaJ+lvhdbu8nMjLS/kQy866AD5qbTDroBKLTQqtT4BveacWyhf6CvPG2gGhrxpsbT0VJve872HhuSHuL97DnQlhSZ+utZBqh5w0PgAxqFPLXTTaXpeGegDazp4qTC0tpKnabTpB2mjqd1wqtz0p0PzPOg1pLPQa87XyhT6wDpq6WzaQa+F1vXoS8n+VOgzH9pCzuDBg/Ohzdu/6qAleleRmYnH45o+CI3dQtenDpomIko/dVgH1qNPg46OJzStD3b4VGgR5kCHWWiYYHI1B1pZ8zAub17vBRyk/+2w0DutTrXpNK/yNE1Fpsb3QfMsNAcYnGtTNL0WmpcLDE7e5cbf33VYV8ag/aJZmld5mhbXMoF2HrSchA6UB60sdJ5No3Nnxk/LYwvtNI0+bzq0LuDlaJoC7c53adqHvqHO0/TVjMUrYaGdTZMfnQqNlY9dngNd/X5oHma8R0bTOdA4JB0SVTBcsdBbUzXt2fQMFU79xgloG8hyjRfoaWNnd1UPhZEdbKfVCUU9YK+Jp4V9eytyFTzGiBzimFcqPqYgmCv7PsfDhdSlVibiaTTdVeE3Cldg7fg5YgY6kPnQyl36hu08Bo2mDJ0PdOh3XcptE7lL/QrV0PSazauaYusZofmNKTSbCp2raYyyPehOHrRJTinJCiG5sr811zQDctBiCrQpFUyBronpms6DPg3dMw0YWKUS0zWtUwpIO49tCWHNSTN65ahp0OgjnudCV9Pk65s1/Ua7ZgOtA7pJm7bZ+ImCjOVeX9j8MpVm5F2281YCsHVPv1pybBqH86v4PpvGgPKpLce80aGEfj/naBqMuD5ss7RmMq/Mu9GM/+kUaIyLdkWeprGsHq1Oh66oHGhMwjYtNOQhL/KgpYW+Fh+78gS2LSg7E8nSQDoDnVYUGIRFFHjkQB+mFUgHXfkKNHotO+eZyWKykb8HvShDv7SXSpMjkiwLna4MWUULf0TC1KJ2xXdC01y6o1UNHbbFOdCVpnJYpljhpBlec9tb3XKqxeWt6NiH7psbXW8460ihq1+DRrOs6yLZFUXWgUXUMA/6FKSoyOFMnHLwuj6cJ+nMcoVdzhJzALaTYlHjqqmagv9uTJR6F/S7ldyO0iarbRHO6poqOt/7wlRAbE1R2XRFB9l9Ko5iaUOGteEgoEqryEoz8Nl1p9oZyrM/YpIuxFyEC7ZpPRYLqMYk+H6DuvkFSI6h2TY+U8E/oPpImM7W3+obH2BlZJ2KRPKOlp7FypfUJdg5RL03wBGuUZEMy34ru7a0m5V+4VSrP0RobbTb7e5nZO67ujDv0api9KgbBD1IbKONsUI4O6SynFQ7nO3ZXZxPtBvr54LlmDC+V3sYS2MR13QxL1argr/UJdH4n5yJq6aIF6K3fm4MLXbS2/bGn1u2EqOrG1EjrV4v1nS5w7Xtjv9CAZOmhLjJ2VpaNnxjdmPd+5p5z9miqWuXd+nx0wZX0IB2i43y9ox0XO+YG1cbY597uMeia7te2yPGx6Gbsd7glnYXoc2uYva+aJlx3RbVr5r2GKHTK+gam91MhRXyJS294qx2ptXQWyuC/1qNIUuLueys1YrsBm1f2OS3prNdvbWFoE/5Z7u9AQ/m9B99BG2bml1/GYYr6+4ThsXaSG8dypJo9yOVo05Aw1bdcccE7nMgHdpVDsxFRp/Tbdhl3jcKvaO0dTRgud8w2SDcW8rRyyzs61988czqELaKD1KtvERjCHUKnOnMC/q1GFuMN9u0uoEF4PAOL8N3ebxJiQvur4U2Uio4NHsV3+fmkGqpZYCuSoqNhK0nlAEaQo9N9x2S+Lkc5lHVCwGBrWXLMkzEeQ96QZk8q9jQV8P/Ds3RB4eAo1egOFq0tZVxaIQ0UkZcARtaGvRpGqnImxEROBRWqoMGkAJglYtMa+vCoeBoUBesdSF0IvlERJQA9R1Ng1VKoJ53GyO0Dd26cGhsOAPP43ee3sW1OhXe2xr0jgYvNIgAd3k6YgQZh4ajBcXgnZawIXRe3krICqaOGIze6CB2tKB0Jmip2SnUJW6D3dGg4mkB9MjhIeRoLKsnh4KjGUYdPeroUUePOnqQcQGvH/e6mzrvqwAAAABJRU5ErkJggg==;" vertex="1" parent="1">
          <mxGeometry x="852.5" y="235" width="55" height="55" as="geometry" />
        </mxCell>
        <mxCell id="VEx_6JtmXYtKarDa4OtJ-12" value="" style="endArrow=none;html=1;rounded=0;" edge="1" parent="1">
          <mxGeometry width="50" height="50" relative="1" as="geometry">
            <mxPoint x="600" y="369.5" as="sourcePoint" />
            <mxPoint x="840" y="369.5" as="targetPoint" />
          </mxGeometry>
        </mxCell>
        <mxCell id="VEx_6JtmXYtKarDa4OtJ-13" value="" style="endArrow=none;html=1;rounded=0;" edge="1" parent="1">
          <mxGeometry width="50" height="50" relative="1" as="geometry">
            <mxPoint x="600" y="499.5" as="sourcePoint" />
            <mxPoint x="840" y="499.5" as="targetPoint" />
          </mxGeometry>
        </mxCell>
        <mxCell id="VEx_6JtmXYtKarDa4OtJ-14" value="" style="shape=cylinder3;whiteSpace=wrap;html=1;boundedLbl=1;backgroundOutline=1;size=15;" vertex="1" parent="1">
          <mxGeometry x="840" y="325" width="80" height="90" as="geometry" />
        </mxCell>
        <mxCell id="VEx_6JtmXYtKarDa4OtJ-15" value="" style="shape=cylinder3;whiteSpace=wrap;html=1;boundedLbl=1;backgroundOutline=1;size=15;" vertex="1" parent="1">
          <mxGeometry x="840" y="455" width="80" height="90" as="geometry" />
        </mxCell>
        <mxCell id="VEx_6JtmXYtKarDa4OtJ-16" value="" style="shape=image;verticalLabelPosition=bottom;labelBackgroundColor=default;verticalAlign=top;aspect=fixed;imageAspect=0;image=data:image/png,iVBORw0KGgoAAAANSUhEUgAAAWgAAAFoBAMAAACIy3zmAAAAJ1BMVEXu7u7///9GpDhBlzJSrENPNyqTeF5hslE8IhSDZ03U08i5uaSin4YOJcVIAAAaAklEQVR42uydy2ocSRaGVXLDbFNuQ0GVFnZEgGFWcoSgQNainRmQrzNSJdTzaNSr2ZW1mLVaLzZxLhEZeSkvWjJxknFKLbcMbT7//HFucVJ9dkFPdUbPIr49+wX9C/oX9C/oX9D/n9Cr/ywR+r9LhP6+ROi/jguE7j4tD3rT3v48aH5W/Ptv9u22dauf8yenb9/+j/6t1c+Lg+4O+qpaGPT286HZLQ36z/bQuIdlQVf+cGj03bKgf2sPh72+qZYEvQlCH+7VblHQwdEB2rrjgqBR6EOj9MdqOdDfQeigtN0tB3prgPlQKwX+WAg0Ct2C0vprtRBoFjpED61CflkENAkN0Fpp/c/qZ0C/eT0dqg4wBxzEQG1Xi2gCotCotHIflwDNju5IaaWvVwuA5tARnn1ADlL/UYmHjqGDkgtgR6kFQ38na3QY8kDpJLVc6E0SGpOLVSHB7FbCoT/07gjQSlkIIHeVbOh7j6cQD2IH5gjUenchGnprfK90B0qjq59FQ//bd206iJ2C8KGobJILXdXet72nHRCjq4+Codem69oUPTrIiAqyIna4UqG/B6E9J3H0tA6WxsC3Egu9MW3rPREjNFgaHuv+VUmdmv7pg9Jt20cPzY/St2KbgPsWlMYw3XHIoweOolDoS+NDxItKt7nSVt8IhQ5BuvOdb/PkEpW2ViZ0ZVpU2h/6NB6VDlnxTiT02gSlgTspHYWGqEdZURz0X0Hk8AGfpPU9wOKjaJggD3oDx3CotI6WhqCnuRcQBf0BMwt4Opam90plSutbgdBPgAzRo/Mx5GmdPN37QxR0TXYG6ljloTEoI8Lnx0oa9Pb6s++GMa+vPaiD2YmDPjegMSndpuSS4jR0MG9+2fXqP+vFGyRuo6dRaZs8Ddx/VLKgKxUqPFC5Q2oKIDaGD+5gbt8M+m3K3LWpKbOAseNJDHmwoThNX9xKVBOwejS+xojXtdy8ADSUd2jpWH/Igr73BjoA+Oy4IQd76MzSUH+Igt5ek9J8FtukdAwelBWtKOh/mKB03XLUixVTaGhjmOb64ygIevUEzN4PlYbkwo1LrPSuBEHDkMZQzENP+9TYktJNNPZOEPTlNShdty0Xpz41trFF5BASgp4U6JDDwdPexOKjG2ZE2wfrOznQe3BHAKfGJZq6ixmRv4LoN2KgN8qT0jG9dDxCIKW5qsZgvRMDvUZgbyi5tHGMED2tdIohodKTAg2W9mjrjtI4FXqg9LVlS/P4VN9JgX5CZBC75ZDXJaUDaNO3L4rWmiRA7330B+rsOVCjp4PWNnna0tqKhKnpxhqKHjXqjMVpG6OH0qmoRnr3IKMJuLSGM2LdcW+bKR2Dh+ZMcycD+pwNjUrjDKHDk0ietjazdPiNKxHQq0elKLeYmpoArvMOVCcpm1naqlsZ0HtV8znk6MFKH7j2J1s0pLR1IqArZWJGNIbiNHdcFptEtgXX1Apq6vLQW6tqOIXg7DSvwfABh9DyAVSxK3ffJECvbR2iXQ3Y4SvPa1BpTbMlO6ipQ81UHjo04qpWIdxxaxvnTNgj4mypGdbUOwnQL8Ed2CKiQUjnDsOHooRihzW1WwmwRx2VhuzS5v6wFOdUVlODqY/loTdwDhW2WxBDOuoTMXxwjdTX1OSQb+Wh1zYoXWMzbmLJxNUHRY6spibum+LQq3MQGoqlnrpjpceW5pnNbXnoJxA6mJqZ2+hqUHpqaZxDlp+ahiQehDZ8Eg3lF4p5M5ZGwxxLNwEVWloprE4NMXfcvGBmubaWv0Sl6U2SktBbG06hoRIPlP4M1TSHj7GlydPWXZWGDkkc/KHAH5gUocajqEdKo5vT3Qt+efUe1muhf1eQEMM/IDQkxbaNufygoqXVNY9P6btdaehH5SFMY0mNBuEbDJgyKeprQek+TjfOudL22Ct0R40lNRqk5eTigz1sDB4kcSidHDzH4tAmKc0hL+aXg+7zIXw0COwC911Z6Mqyp0lpCHtdpD40mlpDdDMRW6S+Kgu9AWj0B6UXWmPibQSMdVYZ6+KjnYVvXrtb+EroS5CxhgdkptPY8S5TSycvSmzBGBrF3pWFXqM98CxCnI4dOd0JJBs7bckYGn9xtiz0+6ClIVd7Vrpt48hXk8TaJjvT9w6u9gtCPyI0ZhfDSn/2XH202kVgbcnO2toY8wpCPyn0NDYvpDTvjAE4ipuU1pnS30pOTUNXC9Boa0wteF3E2wiZ0tZhzEPB4flSsglY7QHakD08F9QU78JhHCptM6fcFO1cLNuD0gu2toZ3VTo/8LTNlf5aEnqD0NhwxXmv502ETGkgt9HUCH4tADrYgxM55PKWx9StdrY/fk5nSruS0JfckpCrydOGx72+S8pSxZF52q0KQq8JGmOeocqUbpuxPtVJWfoVojQrfRQAjXWe8TzPiwNf7bLDx8GDv78rCH1O7qBAXdfU2xreRug9HcNe7+mC0HDdQpZW1AewQegao9WDMJeiH/zGFwHQWDQpmtd4SuRsD92D9nnGuauC0E8qUmMiR0/T6BSoG6pFtcuUZvCvAqDR0oZWVaLS3jdckNrkkVQ7lYTeR2iYnCoT+0Ty9KGxWdRgcFZ6JwE6BQ/sA/hirsFeherokdK7glPTJvc03AcYPow4gWy4K8wK6XQYCzYB8Z2QFPMCc01rY6Q0V3hZoOZ+oCB0emeIultPFwKeF8AheujUHeZhT7tVMegqQXtuXiIzXgYkpUc9F/zrQzHoTYLGyRg6Go5j3WHt0dhYKfXhIx7JowBoRCZXIzbWpk2M0nl9x1KXg97a/CRiSqS4hxVTq53LWTU1MTRGeC4GfZkpbXiMQHNq3O3VfZDTA6WxzCsPHasP6m3pTYyub2yzHgbF1gWVXg9DHje3eAVKGZFjnCilc2iqPuJsHVd7dRrg9ZW0Ta1LKegPY3vwMhNVTBQ9GFSO0hk0hTxDYwTqyKHKs1NPU6L5Vgz6faY0D6nTzUtee2g7OJHwiICmJkDRzhjNxrq905kp+thBTWKpqenIHoounEnpED8aGtFobXOl6a/xqVgTkEMbxdmFI0iIH43LwwfL7Gi296UY9HqitGLmGoqPPZWhQ0/zrzKgY0Meb+ZY6UHnYmnmi56WAd0nctx3Q6UtmZrHvbnW5Tyd1R7p4jZ52rfNIMylfI5/lU8ilKaJXowesJTcNen0DeI0GuabIKUxRtOqPYQ8PVI6dS9v8vMc/t5/vM2hDTe38bYIlc5y9zAjSoHmMQJ6uoZLjMZp3R+9rMiTpHRqXnDHhpTm9mqi9LMM6BipeTpmWt97Wo+KPF1Q6c0weqTmBWfrMOpNc7z8mittBBW6vhhCD5sX3/VK274Z51hdEFqN7EGjUxyuexwh6OxKbvC8DvpVszythtmFRqc8G+uvL5y1We2BVik3rLnYj5Wm6yJ6FaNrbHZTNKryVkKg6SRmSjcp1GHFEXMMfi046n1S45NI10WYYro0YdLZLQYbpiD0o5ocRVpaB5McGjfYX9JZ+LuuykG/myhNS+tk7PwSTg/Cn9sVhP5dzZ5EHPfWXsc1INqcsP0Fl7stCL0e53FuE+m2KJul05pKf0X3VQx0X1LTOkJfkCbqaO6bgtDDiqlvbunqFuvptPTB13Nk7quC0aOy05PIrW1oYLIqT/M+EH+EFrHgMuGc0jzQQ6VjdxUtzTYPlWlB6GFKNDFQg861p25c00pv+sS/w3Pxtc2BQYZK84jJxtXpmBcfSi/IDpSG0Sm9HgBxOt0F2HgK0S+h9Cj5hv65mpRMcWk9xGlijoHapZUxtyu6trmenkS6xYBArbNlD15U1wLWNs+2dlZpWsDizYN+9Sp1L1dFoTezSvP+VV/lOXjpLGu2iq4in62amZjH+73xINrkivxuqyT0yzjm0esjePfSxMjsxs9DWehRG+BpK5l2kuH0WetmnlXZ11XP7SS74HUiiE2ZcO65KAt9aScZkdYngtIniJ27LQw9Ch+K97+x/DjFDK8ElH2buTkR80zsXGaeL6WhX9S0eVHs6VPPXWno6RQhNi+noY8XxX+swHTKVJsfe/qiNPS0TawVvwd6inn3aujX1dPh0adK6pPQxV/Bvrh4OTWwOQn95aw49LvxSeTwcdrTz+Whxyexjhf7J5V+KA89yYnckZ/0NP0gt7LQF82kzqMXuU5B30iAfppU1FSb1j86h6Wh39tp+FDmtNJHCdAzzS2N805An0mAHl/M1fHtsxPFdCUC+mlaM8F7fiegr2RAj0wd94LqH6SW8tDb2UuMU9APMqBHkZovMWr/g9QiAPpxfBIpkf8gtQj4v0FNtsbwx0k1J1ut4k0AfFtNL7nCeZyHfpACPayp+Z2X+YO4uxAD/X5ubWwW+koO9HayzBR6gVl7PK/EQA9uueI7DbPQK0HQ76bLKkbP9rSCoCf+CMaeU/rTmSDoiT/CP81sDpcE/W60/x249WxZKgl6aydbp3q2LJUEPfAHVR/72QpPFHR+j1Hjx8ts0yIKejMwNVQfL7NNiyjovP6gnyb1Mlv//4+9s/dtW0kCOLeIL7FT7Bb2e5FcOQ9Ica7uDjjgrkt7TVIwWAdXxEUE005zSJkmV6xBxS6SIoL07EIqEsTSK6JL4meLLmIEDuxIf9TNzH6QK1FOAth3JBAC74Hk7pC/Hc4OZ2Zp5UKgLyCe1od/GP/7kQnov1/MjYIL/Cdh+U2v3rv0y7vcULpY0NmFDAqZ3uUtABQMOrsmgC7v1ruchbjCQbPH3ky89Z+c5aHiQf/k/SHord8nl2mLB52ZimjS49D/KiZ05q0IM3HZh/6TKCh05c8ZP718lJscFg46LUWipo9ySwfFg0693u2l5ZFfWCostAtAwDz+OLzphR3Fhf7J/YDe0j+Gj71F2uJC21wAItMnw0/eOkuBoa2qb99+MvrkrYZfJPSFxdP60Kr69tIoo+kL+sDj4pMA84+OGFX/sjQavfcC6QJD27Dp9tJw9LsXKhUa+ifzs6Gj0VFW0YWGtlZ962iUPM7GpIWGDqoUgSyPjpJPGUUXHJq9QwNZBk2/z0YdBYemYG95NEyOsuFdwaExrr75ZDQcJrjIwkoCzWEujkZJMnyf/ohY4aHxZT46Ak33Hv+Nl0XTEKL+BeZhkgyOWFAe6OpfAXqYJG1eImjxGzgP0HQ7KBN0dTQ8SgZJcDnQFxxP28MKmnQyuIQrX0IS4A5R00m/XNDsCOZhr2TQwW9oHp2SabqHHo+VTNNzYB290kGDpgdlg66CdZRO0xU0D1Ey6FnUdNmgOZh0t2zQQdIbDMoHnZQQupd0SwfNLhP6kuJpIXpJr305VxaXCD3odksHPVdGTc+VUtPdQQk13et2edmgK4Nu+TRd6ZXQpkup6Wq3jOZRSpvWJl068ygftOi2Z8sHHbQvzaYvLQnAf7m5dJnLJR7+gP4B/QP6B/T49m2t/0/oKmSREHR3e7DhDvN8fBe3gd66QWGgD1v+1hh2hGtd8Ns2OgWBjmpjW6sxsN8UiT2/KWp0CgFdiVotDUS61NhfuGndzzRqalYITfPZ/QbybKD1HkXE1vrITWvQwycRbXSTUYTdovWieA80gqijA6t9om6kv2iziKwY2VVocBErCHSVuMzhdaL+ldvWCjbqkPQQoVcvv2r6TYfIFdlD8RopWx3Xioe6M/HviP9BEvCN0DV3yM9I1e4whWao6kcFgm64Q1bVtpvRdMNAz5iGIkAHnqa1QqPVSfMIcDhRpyDQNQ+a2NB2J6BxP+oXUtOBONNmMG7TNLrCQNeyNg2tC6jR40lNswJB8zHzYOROnk9MRA1dUJtmFEXt5Nh0zbwd86HppcX891e2FR1QVpiJKVj2G5tMayagN52jcWiK7iZtGvd38/x0Bf7HxFzSNlg8Sczr3t6YidlkOPBuLPgX+niwtsH8EVYSuBDPQqN08vZ8mxYLNBMnNI1ms54D3Wsew61O4lg94Hin6zKOV/qetioncA5OWmGUerkNw3sIp+udDDT1VLsM+yyazp70FJumKCnqT9g0nI76Y48UVPUyjvuCr8VhGKoONM/EKgzjTZZVXhNbQ6mO7fMHKQXQJCW3hYOuNmMSr79loiL1U6p60vkuj1GUFB27xl0zYLCaXe5Ds30J95B9caroulsQF8qQdp+nK1SVpgJNxXhfPY9fh0i2JT4o3ffYQsPo1IqEs5J6Z6TxnGLnTEQy5FVn0zreCHiEkbYPXcWLhbLzKpakDdWpyJCoZT2FPlXxTrf3MNajgk0S7NYCyeBZa0unSvVFcKLHEtap85ovHfgWkFppzUGnmob4L1rnY1VT/pCe7xAsLiIFPQdAeLp40n7FyK4peR87o15JqYysItxuwkhp1Mr4jAUl78CVeVND41h86fTvz2zI7PwNOmRw1HSAjYPubLcH+cFGTmL7Ae8fK/AEdCsVq3XGX6Na7precF5ppwId5DM6dULUcf1L0GvSUKidnYZhB688TwYSo964tNL4AJ/x6dBnJjo10DpP165jHFq8wnnzkbIcUtpHuDmd3NK92Q0VPtNdYQ8ISJb0Vu8IDtPNDFDwigo3OaWuKL6/LrT0Uy19RUuLlIudB+3S8d3OZI5YhWvd19aCmtRvUrzrpoE+DeWq6SuNfcA+GRBZDw6QuDgOj6DxSs/0jyc7aW6kp2r60EELq+mGKSJMQAMfguD+G5yTel7Agw41NNxL2nf/AXS447DqehZVzVMhedMKHbe5Gb3U04gzLZ3RtA+952s6GQ5Hnykdd293H9rMjxt6F6F/DulmcOMFYLJ/3Iv2se2gt8xbU+qnAr4jDO/qK18NyVC0tMWaJ+lvhdbu8nMjLS/kQy866AD5qbTDroBKLTQqtT4BveacWyhf6CvPG2gGhrxpsbT0VJve872HhuSHuL97DnQlhSZ+utZBqh5w0PgAxqFPLXTTaXpeGegDazp4qTC0tpKnabTpB2mjqd1wqtz0p0PzPOg1pLPQa87XyhT6wDpq6WzaQa+F1vXoS8n+VOgzH9pCzuDBg/Ohzdu/6qAleleRmYnH45o+CI3dQtenDpomIko/dVgH1qNPg46OJzStD3b4VGgR5kCHWWiYYHI1B1pZ8zAub17vBRyk/+2w0DutTrXpNK/yNE1Fpsb3QfMsNAcYnGtTNL0WmpcLDE7e5cbf33VYV8ag/aJZmld5mhbXMoF2HrSchA6UB60sdJ5No3Nnxk/LYwvtNI0+bzq0LuDlaJoC7c53adqHvqHO0/TVjMUrYaGdTZMfnQqNlY9dngNd/X5oHma8R0bTOdA4JB0SVTBcsdBbUzXt2fQMFU79xgloG8hyjRfoaWNnd1UPhZEdbKfVCUU9YK+Jp4V9eytyFTzGiBzimFcqPqYgmCv7PsfDhdSlVibiaTTdVeE3Cldg7fg5YgY6kPnQyl36hu08Bo2mDJ0PdOh3XcptE7lL/QrV0PSazauaYusZofmNKTSbCp2raYyyPehOHrRJTinJCiG5sr811zQDctBiCrQpFUyBronpms6DPg3dMw0YWKUS0zWtUwpIO49tCWHNSTN65ahp0OgjnudCV9Pk65s1/Ua7ZgOtA7pJm7bZ+ImCjOVeX9j8MpVm5F2281YCsHVPv1pybBqH86v4PpvGgPKpLce80aGEfj/naBqMuD5ss7RmMq/Mu9GM/+kUaIyLdkWeprGsHq1Oh66oHGhMwjYtNOQhL/KgpYW+Fh+78gS2LSg7E8nSQDoDnVYUGIRFFHjkQB+mFUgHXfkKNHotO+eZyWKykb8HvShDv7SXSpMjkiwLna4MWUULf0TC1KJ2xXdC01y6o1UNHbbFOdCVpnJYpljhpBlec9tb3XKqxeWt6NiH7psbXW8460ihq1+DRrOs6yLZFUXWgUXUMA/6FKSoyOFMnHLwuj6cJ+nMcoVdzhJzALaTYlHjqqmagv9uTJR6F/S7ldyO0iarbRHO6poqOt/7wlRAbE1R2XRFB9l9Ko5iaUOGteEgoEqryEoz8Nl1p9oZyrM/YpIuxFyEC7ZpPRYLqMYk+H6DuvkFSI6h2TY+U8E/oPpImM7W3+obH2BlZJ2KRPKOlp7FypfUJdg5RL03wBGuUZEMy34ru7a0m5V+4VSrP0RobbTb7e5nZO67ujDv0api9KgbBD1IbKONsUI4O6SynFQ7nO3ZXZxPtBvr54LlmDC+V3sYS2MR13QxL1argr/UJdH4n5yJq6aIF6K3fm4MLXbS2/bGn1u2EqOrG1EjrV4v1nS5w7Xtjv9CAZOmhLjJ2VpaNnxjdmPd+5p5z9miqWuXd+nx0wZX0IB2i43y9ox0XO+YG1cbY597uMeia7te2yPGx6Gbsd7glnYXoc2uYva+aJlx3RbVr5r2GKHTK+gam91MhRXyJS294qx2ptXQWyuC/1qNIUuLueys1YrsBm1f2OS3prNdvbWFoE/5Z7u9AQ/m9B99BG2bml1/GYYr6+4ThsXaSG8dypJo9yOVo05Aw1bdcccE7nMgHdpVDsxFRp/Tbdhl3jcKvaO0dTRgud8w2SDcW8rRyyzs61988czqELaKD1KtvERjCHUKnOnMC/q1GFuMN9u0uoEF4PAOL8N3ebxJiQvur4U2Uio4NHsV3+fmkGqpZYCuSoqNhK0nlAEaQo9N9x2S+Lkc5lHVCwGBrWXLMkzEeQ96QZk8q9jQV8P/Ds3RB4eAo1egOFq0tZVxaIQ0UkZcARtaGvRpGqnImxEROBRWqoMGkAJglYtMa+vCoeBoUBesdSF0IvlERJQA9R1Ng1VKoJ53GyO0Dd26cGhsOAPP43ee3sW1OhXe2xr0jgYvNIgAd3k6YgQZh4ajBcXgnZawIXRe3krICqaOGIze6CB2tKB0Jmip2SnUJW6D3dGg4mkB9MjhIeRoLKsnh4KjGUYdPeroUUePOnqQcQGvH/e6mzrvqwAAAABJRU5ErkJggg==;" vertex="1" parent="1">
          <mxGeometry x="852.5" y="357.5" width="55" height="55" as="geometry" />
        </mxCell>
        <mxCell id="VEx_6JtmXYtKarDa4OtJ-17" value="" style="shape=image;verticalLabelPosition=bottom;labelBackgroundColor=default;verticalAlign=top;aspect=fixed;imageAspect=0;image=data:image/png,iVBORw0KGgoAAAANSUhEUgAAAWgAAAFoBAMAAACIy3zmAAAAJ1BMVEXu7u7///9GpDhBlzJSrENPNyqTeF5hslE8IhSDZ03U08i5uaSin4YOJcVIAAAaAklEQVR42uydy2ocSRaGVXLDbFNuQ0GVFnZEgGFWcoSgQNainRmQrzNSJdTzaNSr2ZW1mLVaLzZxLhEZeSkvWjJxknFKLbcMbT7//HFucVJ9dkFPdUbPIr49+wX9C/oX9C/oX9D/n9Cr/ywR+r9LhP6+ROi/jguE7j4tD3rT3v48aH5W/Ptv9u22dauf8yenb9/+j/6t1c+Lg+4O+qpaGPT286HZLQ36z/bQuIdlQVf+cGj03bKgf2sPh72+qZYEvQlCH+7VblHQwdEB2rrjgqBR6EOj9MdqOdDfQeigtN0tB3prgPlQKwX+WAg0Ct2C0vprtRBoFjpED61CflkENAkN0Fpp/c/qZ0C/eT0dqg4wBxzEQG1Xi2gCotCotHIflwDNju5IaaWvVwuA5tARnn1ADlL/UYmHjqGDkgtgR6kFQ38na3QY8kDpJLVc6E0SGpOLVSHB7FbCoT/07gjQSlkIIHeVbOh7j6cQD2IH5gjUenchGnprfK90B0qjq59FQ//bd206iJ2C8KGobJILXdXet72nHRCjq4+Codem69oUPTrIiAqyIna4UqG/B6E9J3H0tA6WxsC3Egu9MW3rPREjNFgaHuv+VUmdmv7pg9Jt20cPzY/St2KbgPsWlMYw3XHIoweOolDoS+NDxItKt7nSVt8IhQ5BuvOdb/PkEpW2ViZ0ZVpU2h/6NB6VDlnxTiT02gSlgTspHYWGqEdZURz0X0Hk8AGfpPU9wOKjaJggD3oDx3CotI6WhqCnuRcQBf0BMwt4Opam90plSutbgdBPgAzRo/Mx5GmdPN37QxR0TXYG6ljloTEoI8Lnx0oa9Pb6s++GMa+vPaiD2YmDPjegMSndpuSS4jR0MG9+2fXqP+vFGyRuo6dRaZs8Ddx/VLKgKxUqPFC5Q2oKIDaGD+5gbt8M+m3K3LWpKbOAseNJDHmwoThNX9xKVBOwejS+xojXtdy8ADSUd2jpWH/Igr73BjoA+Oy4IQd76MzSUH+Igt5ek9J8FtukdAwelBWtKOh/mKB03XLUixVTaGhjmOb64ygIevUEzN4PlYbkwo1LrPSuBEHDkMZQzENP+9TYktJNNPZOEPTlNShdty0Xpz41trFF5BASgp4U6JDDwdPexOKjG2ZE2wfrOznQe3BHAKfGJZq6ixmRv4LoN2KgN8qT0jG9dDxCIKW5qsZgvRMDvUZgbyi5tHGMED2tdIohodKTAg2W9mjrjtI4FXqg9LVlS/P4VN9JgX5CZBC75ZDXJaUDaNO3L4rWmiRA7330B+rsOVCjp4PWNnna0tqKhKnpxhqKHjXqjMVpG6OH0qmoRnr3IKMJuLSGM2LdcW+bKR2Dh+ZMcycD+pwNjUrjDKHDk0ietjazdPiNKxHQq0elKLeYmpoArvMOVCcpm1naqlsZ0HtV8znk6MFKH7j2J1s0pLR1IqArZWJGNIbiNHdcFptEtgXX1Apq6vLQW6tqOIXg7DSvwfABh9DyAVSxK3ffJECvbR2iXQ3Y4SvPa1BpTbMlO6ipQ81UHjo04qpWIdxxaxvnTNgj4mypGdbUOwnQL8Ed2CKiQUjnDsOHooRihzW1WwmwRx2VhuzS5v6wFOdUVlODqY/loTdwDhW2WxBDOuoTMXxwjdTX1OSQb+Wh1zYoXWMzbmLJxNUHRY6spibum+LQq3MQGoqlnrpjpceW5pnNbXnoJxA6mJqZ2+hqUHpqaZxDlp+ahiQehDZ8Eg3lF4p5M5ZGwxxLNwEVWloprE4NMXfcvGBmubaWv0Sl6U2SktBbG06hoRIPlP4M1TSHj7GlydPWXZWGDkkc/KHAH5gUocajqEdKo5vT3Qt+efUe1muhf1eQEMM/IDQkxbaNufygoqXVNY9P6btdaehH5SFMY0mNBuEbDJgyKeprQek+TjfOudL22Ct0R40lNRqk5eTigz1sDB4kcSidHDzH4tAmKc0hL+aXg+7zIXw0COwC911Z6Mqyp0lpCHtdpD40mlpDdDMRW6S+Kgu9AWj0B6UXWmPibQSMdVYZ6+KjnYVvXrtb+EroS5CxhgdkptPY8S5TSycvSmzBGBrF3pWFXqM98CxCnI4dOd0JJBs7bckYGn9xtiz0+6ClIVd7Vrpt48hXk8TaJjvT9w6u9gtCPyI0ZhfDSn/2XH202kVgbcnO2toY8wpCPyn0NDYvpDTvjAE4ipuU1pnS30pOTUNXC9Boa0wteF3E2wiZ0tZhzEPB4flSsglY7QHakD08F9QU78JhHCptM6fcFO1cLNuD0gu2toZ3VTo/8LTNlf5aEnqD0NhwxXmv502ETGkgt9HUCH4tADrYgxM55PKWx9StdrY/fk5nSruS0JfckpCrydOGx72+S8pSxZF52q0KQq8JGmOeocqUbpuxPtVJWfoVojQrfRQAjXWe8TzPiwNf7bLDx8GDv78rCH1O7qBAXdfU2xreRug9HcNe7+mC0HDdQpZW1AewQegao9WDMJeiH/zGFwHQWDQpmtd4SuRsD92D9nnGuauC0E8qUmMiR0/T6BSoG6pFtcuUZvCvAqDR0oZWVaLS3jdckNrkkVQ7lYTeR2iYnCoT+0Ty9KGxWdRgcFZ6JwE6BQ/sA/hirsFeherokdK7glPTJvc03AcYPow4gWy4K8wK6XQYCzYB8Z2QFPMCc01rY6Q0V3hZoOZ+oCB0emeIultPFwKeF8AheujUHeZhT7tVMegqQXtuXiIzXgYkpUc9F/zrQzHoTYLGyRg6Go5j3WHt0dhYKfXhIx7JowBoRCZXIzbWpk2M0nl9x1KXg97a/CRiSqS4hxVTq53LWTU1MTRGeC4GfZkpbXiMQHNq3O3VfZDTA6WxzCsPHasP6m3pTYyub2yzHgbF1gWVXg9DHje3eAVKGZFjnCilc2iqPuJsHVd7dRrg9ZW0Ta1LKegPY3vwMhNVTBQ9GFSO0hk0hTxDYwTqyKHKs1NPU6L5Vgz6faY0D6nTzUtee2g7OJHwiICmJkDRzhjNxrq905kp+thBTWKpqenIHoounEnpED8aGtFobXOl6a/xqVgTkEMbxdmFI0iIH43LwwfL7Gi296UY9HqitGLmGoqPPZWhQ0/zrzKgY0Meb+ZY6UHnYmnmi56WAd0nctx3Q6UtmZrHvbnW5Tyd1R7p4jZ52rfNIMylfI5/lU8ilKaJXowesJTcNen0DeI0GuabIKUxRtOqPYQ8PVI6dS9v8vMc/t5/vM2hDTe38bYIlc5y9zAjSoHmMQJ6uoZLjMZp3R+9rMiTpHRqXnDHhpTm9mqi9LMM6BipeTpmWt97Wo+KPF1Q6c0weqTmBWfrMOpNc7z8mittBBW6vhhCD5sX3/VK274Z51hdEFqN7EGjUxyuexwh6OxKbvC8DvpVszythtmFRqc8G+uvL5y1We2BVik3rLnYj5Wm6yJ6FaNrbHZTNKryVkKg6SRmSjcp1GHFEXMMfi046n1S45NI10WYYro0YdLZLQYbpiD0o5ocRVpaB5McGjfYX9JZ+LuuykG/myhNS+tk7PwSTg/Cn9sVhP5dzZ5EHPfWXsc1INqcsP0Fl7stCL0e53FuE+m2KJul05pKf0X3VQx0X1LTOkJfkCbqaO6bgtDDiqlvbunqFuvptPTB13Nk7quC0aOy05PIrW1oYLIqT/M+EH+EFrHgMuGc0jzQQ6VjdxUtzTYPlWlB6GFKNDFQg861p25c00pv+sS/w3Pxtc2BQYZK84jJxtXpmBcfSi/IDpSG0Sm9HgBxOt0F2HgK0S+h9Cj5hv65mpRMcWk9xGlijoHapZUxtyu6trmenkS6xYBArbNlD15U1wLWNs+2dlZpWsDizYN+9Sp1L1dFoTezSvP+VV/lOXjpLGu2iq4in62amZjH+73xINrkivxuqyT0yzjm0esjePfSxMjsxs9DWehRG+BpK5l2kuH0WetmnlXZ11XP7SS74HUiiE2ZcO65KAt9aScZkdYngtIniJ27LQw9Ch+K97+x/DjFDK8ElH2buTkR80zsXGaeL6WhX9S0eVHs6VPPXWno6RQhNi+noY8XxX+swHTKVJsfe/qiNPS0TawVvwd6inn3aujX1dPh0adK6pPQxV/Bvrh4OTWwOQn95aw49LvxSeTwcdrTz+Whxyexjhf7J5V+KA89yYnckZ/0NP0gt7LQF82kzqMXuU5B30iAfppU1FSb1j86h6Wh39tp+FDmtNJHCdAzzS2N805An0mAHl/M1fHtsxPFdCUC+mlaM8F7fiegr2RAj0wd94LqH6SW8tDb2UuMU9APMqBHkZovMWr/g9QiAPpxfBIpkf8gtQj4v0FNtsbwx0k1J1ut4k0AfFtNL7nCeZyHfpACPayp+Z2X+YO4uxAD/X5ubWwW+koO9HayzBR6gVl7PK/EQA9uueI7DbPQK0HQ76bLKkbP9rSCoCf+CMaeU/rTmSDoiT/CP81sDpcE/W60/x249WxZKgl6aydbp3q2LJUEPfAHVR/72QpPFHR+j1Hjx8ts0yIKejMwNVQfL7NNiyjovP6gnyb1Mlv//4+9s/dtW0kCOLeIL7FT7Bb2e5FcOQ9Ica7uDjjgrkt7TVIwWAdXxEUE005zSJkmV6xBxS6SIoL07EIqEsTSK6JL4meLLmIEDuxIf9TNzH6QK1FOAth3JBAC74Hk7pC/Hc4OZ2Zp5UKgLyCe1od/GP/7kQnov1/MjYIL/Cdh+U2v3rv0y7vcULpY0NmFDAqZ3uUtABQMOrsmgC7v1ruchbjCQbPH3ky89Z+c5aHiQf/k/SHord8nl2mLB52ZimjS49D/KiZ05q0IM3HZh/6TKCh05c8ZP718lJscFg46LUWipo9ySwfFg0693u2l5ZFfWCostAtAwDz+OLzphR3Fhf7J/YDe0j+Gj71F2uJC21wAItMnw0/eOkuBoa2qb99+MvrkrYZfJPSFxdP60Kr69tIoo+kL+sDj4pMA84+OGFX/sjQavfcC6QJD27Dp9tJw9LsXKhUa+ifzs6Gj0VFW0YWGtlZ962iUPM7GpIWGDqoUgSyPjpJPGUUXHJq9QwNZBk2/z0YdBYemYG95NEyOsuFdwaExrr75ZDQcJrjIwkoCzWEujkZJMnyf/ohY4aHxZT46Ak33Hv+Nl0XTEKL+BeZhkgyOWFAe6OpfAXqYJG1eImjxGzgP0HQ7KBN0dTQ8SgZJcDnQFxxP28MKmnQyuIQrX0IS4A5R00m/XNDsCOZhr2TQwW9oHp2SabqHHo+VTNNzYB290kGDpgdlg66CdZRO0xU0D1Ey6FnUdNmgOZh0t2zQQdIbDMoHnZQQupd0SwfNLhP6kuJpIXpJr305VxaXCD3odksHPVdGTc+VUtPdQQk13et2edmgK4Nu+TRd6ZXQpkup6Wq3jOZRSpvWJl068ygftOi2Z8sHHbQvzaYvLQnAf7m5dJnLJR7+gP4B/QP6B/T49m2t/0/oKmSREHR3e7DhDvN8fBe3gd66QWGgD1v+1hh2hGtd8Ns2OgWBjmpjW6sxsN8UiT2/KWp0CgFdiVotDUS61NhfuGndzzRqalYITfPZ/QbybKD1HkXE1vrITWvQwycRbXSTUYTdovWieA80gqijA6t9om6kv2iziKwY2VVocBErCHSVuMzhdaL+ldvWCjbqkPQQoVcvv2r6TYfIFdlD8RopWx3Xioe6M/HviP9BEvCN0DV3yM9I1e4whWao6kcFgm64Q1bVtpvRdMNAz5iGIkAHnqa1QqPVSfMIcDhRpyDQNQ+a2NB2J6BxP+oXUtOBONNmMG7TNLrCQNeyNg2tC6jR40lNswJB8zHzYOROnk9MRA1dUJtmFEXt5Nh0zbwd86HppcX891e2FR1QVpiJKVj2G5tMayagN52jcWiK7iZtGvd38/x0Bf7HxFzSNlg8Sczr3t6YidlkOPBuLPgX+niwtsH8EVYSuBDPQqN08vZ8mxYLNBMnNI1ms54D3Wsew61O4lg94Hin6zKOV/qetioncA5OWmGUerkNw3sIp+udDDT1VLsM+yyazp70FJumKCnqT9g0nI76Y48UVPUyjvuCr8VhGKoONM/EKgzjTZZVXhNbQ6mO7fMHKQXQJCW3hYOuNmMSr79loiL1U6p60vkuj1GUFB27xl0zYLCaXe5Ds30J95B9caroulsQF8qQdp+nK1SVpgJNxXhfPY9fh0i2JT4o3ffYQsPo1IqEs5J6Z6TxnGLnTEQy5FVn0zreCHiEkbYPXcWLhbLzKpakDdWpyJCoZT2FPlXxTrf3MNajgk0S7NYCyeBZa0unSvVFcKLHEtap85ovHfgWkFppzUGnmob4L1rnY1VT/pCe7xAsLiIFPQdAeLp40n7FyK4peR87o15JqYysItxuwkhp1Mr4jAUl78CVeVND41h86fTvz2zI7PwNOmRw1HSAjYPubLcH+cFGTmL7Ae8fK/AEdCsVq3XGX6Na7precF5ppwId5DM6dULUcf1L0GvSUKidnYZhB688TwYSo964tNL4AJ/x6dBnJjo10DpP165jHFq8wnnzkbIcUtpHuDmd3NK92Q0VPtNdYQ8ISJb0Vu8IDtPNDFDwigo3OaWuKL6/LrT0Uy19RUuLlIudB+3S8d3OZI5YhWvd19aCmtRvUrzrpoE+DeWq6SuNfcA+GRBZDw6QuDgOj6DxSs/0jyc7aW6kp2r60EELq+mGKSJMQAMfguD+G5yTel7Agw41NNxL2nf/AXS447DqehZVzVMhedMKHbe5Gb3U04gzLZ3RtA+952s6GQ5Hnykdd293H9rMjxt6F6F/DulmcOMFYLJ/3Iv2se2gt8xbU+qnAr4jDO/qK18NyVC0tMWaJ+lvhdbu8nMjLS/kQy866AD5qbTDroBKLTQqtT4BveacWyhf6CvPG2gGhrxpsbT0VJve872HhuSHuL97DnQlhSZ+utZBqh5w0PgAxqFPLXTTaXpeGegDazp4qTC0tpKnabTpB2mjqd1wqtz0p0PzPOg1pLPQa87XyhT6wDpq6WzaQa+F1vXoS8n+VOgzH9pCzuDBg/Ohzdu/6qAleleRmYnH45o+CI3dQtenDpomIko/dVgH1qNPg46OJzStD3b4VGgR5kCHWWiYYHI1B1pZ8zAub17vBRyk/+2w0DutTrXpNK/yNE1Fpsb3QfMsNAcYnGtTNL0WmpcLDE7e5cbf33VYV8ag/aJZmld5mhbXMoF2HrSchA6UB60sdJ5No3Nnxk/LYwvtNI0+bzq0LuDlaJoC7c53adqHvqHO0/TVjMUrYaGdTZMfnQqNlY9dngNd/X5oHma8R0bTOdA4JB0SVTBcsdBbUzXt2fQMFU79xgloG8hyjRfoaWNnd1UPhZEdbKfVCUU9YK+Jp4V9eytyFTzGiBzimFcqPqYgmCv7PsfDhdSlVibiaTTdVeE3Cldg7fg5YgY6kPnQyl36hu08Bo2mDJ0PdOh3XcptE7lL/QrV0PSazauaYusZofmNKTSbCp2raYyyPehOHrRJTinJCiG5sr811zQDctBiCrQpFUyBronpms6DPg3dMw0YWKUS0zWtUwpIO49tCWHNSTN65ahp0OgjnudCV9Pk65s1/Ua7ZgOtA7pJm7bZ+ImCjOVeX9j8MpVm5F2281YCsHVPv1pybBqH86v4PpvGgPKpLce80aGEfj/naBqMuD5ss7RmMq/Mu9GM/+kUaIyLdkWeprGsHq1Oh66oHGhMwjYtNOQhL/KgpYW+Fh+78gS2LSg7E8nSQDoDnVYUGIRFFHjkQB+mFUgHXfkKNHotO+eZyWKykb8HvShDv7SXSpMjkiwLna4MWUULf0TC1KJ2xXdC01y6o1UNHbbFOdCVpnJYpljhpBlec9tb3XKqxeWt6NiH7psbXW8460ihq1+DRrOs6yLZFUXWgUXUMA/6FKSoyOFMnHLwuj6cJ+nMcoVdzhJzALaTYlHjqqmagv9uTJR6F/S7ldyO0iarbRHO6poqOt/7wlRAbE1R2XRFB9l9Ko5iaUOGteEgoEqryEoz8Nl1p9oZyrM/YpIuxFyEC7ZpPRYLqMYk+H6DuvkFSI6h2TY+U8E/oPpImM7W3+obH2BlZJ2KRPKOlp7FypfUJdg5RL03wBGuUZEMy34ru7a0m5V+4VSrP0RobbTb7e5nZO67ujDv0api9KgbBD1IbKONsUI4O6SynFQ7nO3ZXZxPtBvr54LlmDC+V3sYS2MR13QxL1argr/UJdH4n5yJq6aIF6K3fm4MLXbS2/bGn1u2EqOrG1EjrV4v1nS5w7Xtjv9CAZOmhLjJ2VpaNnxjdmPd+5p5z9miqWuXd+nx0wZX0IB2i43y9ox0XO+YG1cbY597uMeia7te2yPGx6Gbsd7glnYXoc2uYva+aJlx3RbVr5r2GKHTK+gam91MhRXyJS294qx2ptXQWyuC/1qNIUuLueys1YrsBm1f2OS3prNdvbWFoE/5Z7u9AQ/m9B99BG2bml1/GYYr6+4ThsXaSG8dypJo9yOVo05Aw1bdcccE7nMgHdpVDsxFRp/Tbdhl3jcKvaO0dTRgud8w2SDcW8rRyyzs61988czqELaKD1KtvERjCHUKnOnMC/q1GFuMN9u0uoEF4PAOL8N3ebxJiQvur4U2Uio4NHsV3+fmkGqpZYCuSoqNhK0nlAEaQo9N9x2S+Lkc5lHVCwGBrWXLMkzEeQ96QZk8q9jQV8P/Ds3RB4eAo1egOFq0tZVxaIQ0UkZcARtaGvRpGqnImxEROBRWqoMGkAJglYtMa+vCoeBoUBesdSF0IvlERJQA9R1Ng1VKoJ53GyO0Dd26cGhsOAPP43ee3sW1OhXe2xr0jgYvNIgAd3k6YgQZh4ajBcXgnZawIXRe3krICqaOGIze6CB2tKB0Jmip2SnUJW6D3dGg4mkB9MjhIeRoLKsnh4KjGUYdPeroUUePOnqQcQGvH/e6mzrvqwAAAABJRU5ErkJggg==;" vertex="1" parent="1">
          <mxGeometry x="852.5" y="490" width="55" height="55" as="geometry" />
        </mxCell>
        <mxCell id="VEx_6JtmXYtKarDa4OtJ-18" value="" style="rounded=0;whiteSpace=wrap;html=1;fillColor=#dae8fc;strokeColor=#6c8ebf;" vertex="1" parent="1">
          <mxGeometry x="150" y="240" width="120" height="320" as="geometry" />
        </mxCell>
        <mxCell id="VEx_6JtmXYtKarDa4OtJ-19" value="&lt;b&gt;API&lt;/b&gt;&lt;div&gt;&lt;b&gt;GATEWAY&lt;/b&gt;&lt;/div&gt;" style="text;html=1;align=center;verticalAlign=middle;whiteSpace=wrap;rounded=0;" vertex="1" parent="1">
          <mxGeometry x="180" y="370" width="60" height="30" as="geometry" />
        </mxCell>
        <mxCell id="VEx_6JtmXYtKarDa4OtJ-20" value="" style="endArrow=classic;html=1;rounded=0;entryX=0;entryY=0.5;entryDx=0;entryDy=0;" edge="1" parent="1" target="VEx_6JtmXYtKarDa4OtJ-4">
          <mxGeometry width="50" height="50" relative="1" as="geometry">
            <mxPoint x="270" y="390" as="sourcePoint" />
            <mxPoint x="360" y="390" as="targetPoint" />
          </mxGeometry>
        </mxCell>
        <mxCell id="VEx_6JtmXYtKarDa4OtJ-22" value="" style="endArrow=classic;html=1;rounded=0;" edge="1" parent="1">
          <mxGeometry width="50" height="50" relative="1" as="geometry">
            <mxPoint x="60" y="400" as="sourcePoint" />
            <mxPoint x="150" y="400" as="targetPoint" />
          </mxGeometry>
        </mxCell>
        <mxCell id="VEx_6JtmXYtKarDa4OtJ-23" value="" style="endArrow=classic;html=1;rounded=0;entryX=0;entryY=0.5;entryDx=0;entryDy=0;exitX=1.017;exitY=0.522;exitDx=0;exitDy=0;exitPerimeter=0;" edge="1" parent="1" source="VEx_6JtmXYtKarDa4OtJ-18" target="VEx_6JtmXYtKarDa4OtJ-5">
          <mxGeometry width="50" height="50" relative="1" as="geometry">
            <mxPoint x="290" y="474" as="sourcePoint" />
            <mxPoint x="380" y="474" as="targetPoint" />
          </mxGeometry>
        </mxCell>
        <mxCell id="VEx_6JtmXYtKarDa4OtJ-24" value="" style="endArrow=classic;html=1;rounded=0;entryX=0;entryY=0.5;entryDx=0;entryDy=0;exitX=1;exitY=0.441;exitDx=0;exitDy=0;exitPerimeter=0;" edge="1" parent="1" source="VEx_6JtmXYtKarDa4OtJ-18" target="VEx_6JtmXYtKarDa4OtJ-3">
          <mxGeometry width="50" height="50" relative="1" as="geometry">
            <mxPoint x="280" y="310" as="sourcePoint" />
            <mxPoint x="370" y="310" as="targetPoint" />
          </mxGeometry>
        </mxCell>
        <mxCell id="VEx_6JtmXYtKarDa4OtJ-25" value="" style="endArrow=classic;html=1;rounded=0;exitX=0.75;exitY=1;exitDx=0;exitDy=0;" edge="1" parent="1" source="VEx_6JtmXYtKarDa4OtJ-1">
          <mxGeometry width="50" height="50" relative="1" as="geometry">
            <mxPoint x="840" y="740" as="sourcePoint" />
            <mxPoint x="820" y="690" as="targetPoint" />
          </mxGeometry>
        </mxCell>
        <mxCell id="VEx_6JtmXYtKarDa4OtJ-26" value="" style="rounded=0;whiteSpace=wrap;html=1;" vertex="1" parent="1">
          <mxGeometry x="760" y="690" width="120" height="60" as="geometry" />
        </mxCell>
        <mxCell id="VEx_6JtmXYtKarDa4OtJ-27" value="config-server" style="text;html=1;align=center;verticalAlign=middle;whiteSpace=wrap;rounded=0;" vertex="1" parent="1">
          <mxGeometry x="780" y="705" width="80" height="30" as="geometry" />
        </mxCell>
        <mxCell id="VEx_6JtmXYtKarDa4OtJ-28" value="Pull environment configuration" style="text;html=1;align=center;verticalAlign=middle;whiteSpace=wrap;rounded=0;" vertex="1" parent="1">
          <mxGeometry x="820" y="600" width="113" height="70" as="geometry" />
        </mxCell>
        <mxCell id="VEx_6JtmXYtKarDa4OtJ-29" value="" style="shape=image;verticalLabelPosition=bottom;labelBackgroundColor=default;verticalAlign=top;aspect=fixed;imageAspect=0;image=data:image/png,iVBORw0KGgoAAAANSUhEUgAAAgAAAAIACAMAAADDpiTIAAAAA3NCSVQICAjb4U/gAAAACXBIWXMAABApAAAQKQH1eOIPAAAAGXRFWHRTb2Z0d2FyZQB3d3cuaW5rc2NhcGUub3Jnm+48GgAAAwBQTFRF////AAAAAAAAAAAAAAAAAAAAAAAAAAAAAAAAAAAAAAAAAAAAAAAAAAAAAAAAAAAAAAAAAAAAAAAAAAAAAAAAAAAAAAAAAAAAAAAAAAAAAAAAAAAAAAAAAAAAAAAAAAAAAAAAAAAAAAAAAAAAAAAAAAAAAAAAAAAAAAAAAAAAAAAAAAAAAAAAAAAAAAAAAAAAAAAAAAAAAAAAAAAAAAAAAAAAAAAAAAAAAAAAAAAAAAAAAAAAAAAAAAAAAAAAAAAAAAAAAAAAAAAAAAAAAAAAAAAAAAAAAAAAAAAAAAAAAAAAAAAAAAAAAAAAAAAAAAAAAAAAAAAAAAAAAAAAAAAAAAAAAAAAAAAAAAAAAAAAAAAAAAAAAAAAAAAAAAAAAAAAAAAAAAAAAAAAAAAAAAAAAAAAAAAAAAAAAAAAAAAAAAAAAAAAAAAAAAAAAAAAAAAAAAAAAAAAAAAAAAAAAAAAAAAAAAAAAAAAAAAAAAAAAAAAAAAAAAAAAAAAAAAAAAAAAAAAAAAAAAAAAAAAAAAAAAAAAAAAAAAAAAAAAAAAAAAAAAAAAAAAAAAAAAAAAAAAAAAAAAAAAAAAAAAAAAAAAAAAAAAAAAAAAAAAAAAAAAAAAAAAAAAAAAAAAAAAAAAAAAAAAAAAAAAAAAAAAAAAAAAAAAAAAAAAAAAAAAAAAAAAAAAAAAAAAAAAAAAAAAAAAAAAAAAAAAAAAAAAAAAAAAAAAAAAAAAAAAAAAAAAAAAAAAAAAAAAAAAAAAAAAAAAAAAAAAAAAAAAAAAAAAAAAAAAAAAAAAAAAAAAAAAAAAAAAAAAAAAAAAAAAAAAAAAAAAAAAAAAAAAAAAAAAAAAAAAAAAAAAAAAAAAAAAAAAAAAAAAAAAAAAAAAAAAAAAAAAAAAAAAAAAAAAAAAAAAAAAAAAAAAAAAAAAAAAAAAAAAAAAAAAAAAAAAAAAAAAAAAAAAAAAAAAAAAAAAAAAAAAAAAAAAAAAAAAAAAAAAAAAAAAAAAAAAAAAAAAAAAAAAACyO34QAAAP90Uk5TAAECAwQFBgcICQoLDA0ODxAREhMUFRYXGBkaGxwdHh8gISIjJCUmJygpKissLS4vMDEyMzQ1Njc4OTo7PD0+P0BBQkNERUZHSElKS0xNTk9QUVJTVFVWV1hZWltcXV5fYGFiY2RlZmdoaWprbG1ub3BxcnN0dXZ3eHl6e3x9fn+AgYKDhIWGh4iJiouMjY6PkJGSk5SVlpeYmZqbnJ2en6ChoqOkpaanqKmqq6ytrq+wsbKztLW2t7i5uru8vb6/wMHCw8TFxsfIycrLzM3Oz9DR0tPU1dbX2Nna29zd3t/g4eLj5OXm5+jp6uvs7e7v8PHy8/T19vf4+fr7/P3+6wjZNQAAHSdJREFUGBntwQmAjeX+B/DvmX0Y+y6uJcWkst3rRqVCJColOSnRLkskxLWUErlFruUvtLi2CrnKUpIWomyVLEkkstwZhmEss5w53/+V69rmnDnv+z6/933PmefzATRN0zRN0zRN0yJXieSGTVrc1aFz194Dh40aN2X63IXLli2cO33KuFHDBvbu2qXDXS2aNEwuAS2iJFS9rm3XYZM/XLM7iyHJ2r3mw8nDura9rmoCtPBVpGGXUe9+sS2dFqRv++LdUV0aFoEWTkrd+MTYT3+nQr9/OvaJG0tBc7uKzXtO+jKVQlK/nNSzeUVorpTUbOjSI7TBkaVDmyVBc5NKHcZt8NFGvg3jOlSC5gJRdbvP3k1H7J7dvU4UNOckNhu69BgddWzp0GaJ0BxQ9pEFJ+gKJxY8UhaarZKfW51LF8ld/VwyNHtE3zT6F7rQL6NvioYmrEj7GWl0rbQZ7YtAE1Om2ydZdLmsT7qVgSYg5q5/ZTMsZP/rrhhoal0zJoVhJGXMNdCUKdljPcPO+h4loSkQffucTIalzDm3R0OzptYr+xnG9r9SC5pp8Y9+w7D3zaPx0MwoPvAAI8KBgcWhGVV5dAYjRsboytCMuGZ6NiNK9vRroIXqliWMQEtugRaC6PbrGKHWtY+GFlxitx2MYDu6JUILrMiQVEa41CFFoOUttkcKC4CUHrHQLuXx7mABscPrgXaRZutZgKxvBu189ZaygFlaD9pZ1Wb5WeD4Z1WDdlrpsVkskLLGloZWePBRFlhHBxdGweZ5/AALtAOPe1CAXb2KBd6qq1FQJY7IpsbsEYkokFrspPaHnS1Q8JSdRe1/ZpVFweJ57DC18xx+zIMCJHkFtYusSEZBkfBSFrVLZL2UgAKh2XZqedreDJGv+D+pBfTP4ohwN+6mFsTuGxHJYl70UQvK92IMIlb1b6jl65vqiFAPHqMWgmMPIhIVnUUtRLOKIuI03kUtZLsaI7JED/VRM8A3NBoRpMrX1Az6ugoihjedmmHpXkSGuKnUTJkahwhQbhU1k74ui7BXfw810/bUQ5jrcJKaBSfaI5x5hlOzxv+iB2GryIfULJtfGGGq+mZqCmysirDU9BA1JQ42QRjqnkNNkewnEG5ip1BTaEIMwkrpFdSUWl4CYaTST9QU21QeYaPGb9SU21EVYeLaf1MTsDcZYeG6w9REHGyAMND8ODUhR5vA9dpmUhNz8na43EM+aoKyO8DVevipicp9HC42mJq4fnCt16jZ4GW4U9RUaraY4IELed6hZpM34EKvU7PNKLjO89RsNBAu04uarZ6Cq3T2U7OV/wG4yN0+ajbLuQOu0TyTmu1O3QKXuO44NQdkNIQrXHOYmiPSroYLXH6AmkP2V4fjLttFzTG/VoTDSm2h5qAtpeCo+NXUHLU6Hk56h5rD3oGD+lBzXB84pqWPmuN8LeGQK49Qc4EjV8IRxbdRc4VtxeGA6E+oucQn0bDfaGquMRq260LNRbrAZo0yqblIZiPYqtIBaq5yoBJslLiBmstsSIR93qPmOu/BNt2ouVA32KT2SWoudLI2bBG/kZorbYyHHcZSc6mxsEErPzWX8reCuLIpVCXlq8nP9hs5Zd7nGw+x4Dn6+bTxIwb27NJ1wpdpVCWlLKQtoSL3F8c5V3SZutXPgiJr3cTOyR6cU/GfVGQJhD1NRX7z4CIl24z4jpFv95gb4nGxhlTlaYi6NpOKvIK81Hx+GyPZjlF/QZ62U5HMayEoYTNVqYsA6o3azcj08/C6COQFqrI5AXImUpWfEJjn+vFpjDS+D25GEFdQmYkQcweVeR5BJT7yPSPJwRGVEdwaKnMHhJQ/SGVqIj/Xv5fNCLGhSwLy8zSVOVgeMj6mMt8hBBWHHWD4y57dGCEo56MyH0NER6rTHyGJ6/gNw9uBFyogNJ9QnY4QUCKF6lRBqBpMy2TYWt0xFqHqTHVSSkC9qVRnGwwoPXAPw1HmtAYwoJyf6kyFcjf6qc4EGBJ9zwqGm9zpVWDMD1THfyMUi9tChdrCqObfMqx8XAdGvUqFtsRBrcFUyFcMxrX5nmFjfVMYdytVGgylrjhFhb6FGZ72WxkWdnTwwISEU1To1BVQ6TOqNBzmRHXaSddL7RkLc5ZSpc+gUCcqdTPMinliD13t+ItFYFZfKtUJypQ6SJVOxMG8+F5HqEzuiUOHTuRSmZw3ysO8a6nUwVJQ5W0q9SksKT+HpmTv+Xb+xMG9n3yo/R3Nr6+fXK18sTj8Ia5Y+WrJ9a9vfkf7h57sPXji/G/3ZNOUj2rCkhQq9TYUuYlqvQKL2uxhyHL2rl0wacijreqU9SBknrJ1Wj06ZNKCtXtzGLJ97WDREqp1E5SI30a1HoBVSf/IZb7SV015ulnFKFgSVbHZ01NWpTNf/v8rBqtGUq1t8VDheSp2DaxruJGBZax5u0/LSlCoUss+b6/JYGCbG8M6LxV7HgpUPEG1suOgQMyAk7xU7sbp/VtX9UCEp2rr/tM35vJSpwbHQoFkKnaiAqybQsU2QY3LP+MFcta82qY4xBVv8+qaHF7g8yuhRPQpKjYZliX7qNhsqNL5EP8ra+XLLZJgm6QWL6/M4n+lPQxV1lExXy1YtYCqDYQyZWaSPLF86M0JsF3CzUOXnyA5qwyUeZOqzYdF11O51lCo5YDGsXBMbOMBLaFQTyrXCNasonLVoAXQlMqtgCVtqV4haAEkU702sCD6Jyp3HFogJane5iiY9wTV2wUtEE8O1XsYphXaT/XWQgtoP9X7PQFmDaKARdAC+oEC+sGk0kcp4B1oAS2lgMMlYM4/KOHv0AKaQQl/hynVsyihL7SARlPCqcowYxZFPAUtoGEU8RZMqOajiJ7QAhpOEdmVYNx4yngGWkAjKONVGFbqBGX0gxbQKMo4WgxGDaWQAdACeo1C+sOgxFQKGQwtoNcpZF8cjOlKKS9AC2gcpXSBIVG/UMpwaAFNpJTNHhjRjmJegxbQVIppDSO+pZj3oAW0hGK+hAE3Us430ALaRDl/Qeg+opwD0AI6SjlzELJkP+X446EFUJSCfJcjVG9R0hXQAriakiYiRBWyKOlWaAG0oqSTpRGakRT1GLQAnqCo5xGS2FSKehlaACMoam80QtGWspZBC2AZZd2GUHxEWceioeUp+hhlzUEIyuVQWF1oeapLYZklkb++lNYNWp66UVoP5G8Lpc2ElqeZlLYB+WpIcbug5WkXxV2L/EyivArQ8lCB8l5HPhLSKa8DtDx0oLyDsQiuI20wB1oe5tAG9yC4ZbTBySRol0g6SRssRFB/yqUdHoB2iQdoh5zyCGYIbbEI2iUW0Rb9EIRnJ22RXRLaRUpm0xZbEcRNtMnj0C7yOG3yVwT2Fm2yHNpFltMmExFQVCpt8iW0i3xJm+xFQI1pkx2loF2k9E7apAECGUl7HK4J7RK1jtAewxDIFtoiuym0PDTPoS2+RwDVaY9HoeWpK+1RGXnrRVuMghbA67RFd+RtOe0w3wMtgKhFtMNS5KlYNm3wQyFoASVtoQ2yiiAvXtrg1FXQgqibRRvci7zMog2ehhZUf9pgOvIQc5jyPvVACyrqK8pLi8albqa8tIrQ8lElnfKa4FJjKO9eaPl6kPJew6V+obh/QgvB+xS3HZdIprhdRaGFoMReiquFi/WhuBbQQnInxfXBxeZT2mJoIVpOafNxsRQKy0mGFqI6uRSWgovUoLSJ0EL2FqXVwIU6U1h6aWghK59BYZ1xoakU1heaAYMpbCoutJWydsZBMyBxD2VtxQVK+imrHTRDHqAsf0mcrw1lbYBmjGcTZbXB+UZS1oPQDHqUskbifCspan8sNIMSUilqJc4Td4qiBkMz7AWKOhWHcxpR1KnS0Awrl0lRjXBOX4qaCs2EtymqL875F0XVhmbCNRT1L5yTSkmfQjNlGSWl4n9qUFQbaKbcQVE1cFZbSjocC82U2MOU1BZnDaSkd6CZ9A4lDcRZMyipNTSTWlPSDJy1noLS46CZFJdOQevxX57jFDQDmmkzKOi4B2dUoaS7oJl2FyVVwRmtKOhYAjTTEo5RUCuc8SwFzYZmwWwKehZnvElBXmgWeCnoTZyxmoIqQ7OgMgWtxhlHKOd3aJb8TjlH8IcKFPQ+NEvep6AKOK0pBfWGZklvCmqK03pQUENoljSkoB44bSLlnIqFZknsKcqZiNO+oJyV0CxaSTlf4LTdlDMKmkWjKGc3TsuinHbQLGpHOVn4j1IUdC00i+pQUCkAtSmoCDSLilJQbQDNKecgNMvSKKc5gE6UswaaZRsopxOAfpTzHjTL5lFOPwBjKGcENMtepZwxAGZTzmPQLOtGObMBfEE5zaBZdjvlfAFgG+VUg2ZZMuVsA5BOOYWhWVaSctKBRMrxe6BZFk9BiahGOSehKZBDOdXQmHIOQlMgnXIaox3l/AZNgX2U0w7dKWcrNAV+ppzuGEQ566Ap8B3lDMJLlPMVNAVWUs5LeJVylkBT4GPKeRXjKWceNAXmUc54TKWcedAUmEc5UzGDchZBU2AR5czAXMpZDk2B5ZQzFwspZxU0BVZRzkIso5wN0BTYQDnLsIJytkBTYAvlrMBaytkJTYGdlLMWP1LOPmgK7KOcH7Gdcg5DUyCNcrZjD+WchKbACcrZg1TKyYWmQC7lpOIYBcVBsyyOgo4hm4KKQrOsKAVlI5eCykGzrBwF5eI4BV0DzbKrKSgDBymoBTTLbqWgVOymoC7QLOtMQb9hGwUNhGbZAAraiu8paBw0y8ZR0AasoqB50CybS0Er8RkFrYJm2dcUtBQLKehXaJb9SkELMIeCTkGz7BQFzcY0SioBzaLilPQmJlHSVdAsuoqSxmMMJTWHZlEzShqF4ZTUGZpFD1HS8xhESa9As2gkJfVHH0paDM2iRZTUA10p6XdoFv1GSY+gM0UVh2ZJUYry4j6KuhGaJY0p6i7cQVHdoFnyJEXdimYUNQmaJRMo6npcS1FfQ7PkK4q6EiUoKh2aJWkUVQjIoKg/QbPgMoo6BGArRbWGZkFLivoewCcU9TdoFvSjqI8ATKWopdAs+IiiJgIYSlEn46GZFnOMogYA6EJZTaGZ1piyHgDQjLJGQDNtCGU1AXAFZa2FZtpXlFUNQCJl5ZaAZlLhLIryx+E/UimrHTSTbqOsAzhtA2VNgmbSa5S1FqctoKxfoJn0A2V9gNPGUVhVaKaU8VPWWJzWj8Ieg2ZKBwp7Fqd1oLDF0EyZSWH34bTGFJZTBpoJhY5TWCOcVpnSukMz4X5Kq4TTon0UthqaCQspzBeNP2yjtGrQDCuVTWHbcMZsShsEzbAnKW02zuhHaVuhGfYVpfXDGc0orh40gyr7Ka0ZzihBca9BM6g/xZXAf+2itL1R0Iz5gdJ24awPKO42aIZcS3Ef4KxBFLcUmiHvUNwgnHU75V0NzYAKWRR3O84qT3lvQTNgBOWVx//sp7jMstBCVvgwxe3HOYso7wVoIetJeYtwzouUl5oALUTROynvRZxzN23wGLQQ3Usb3I1zqtAGWzzQQvMNbVAF50mjDVpDC8kNtEEazreMNtgcDS0UX9MGy3C+UbRDV2ghaE87jML5vLRDSlFo+YrfRTt4cb4atMUr0PL1HG1RAxfYTTtkVoWWj7LHaIfduNBk2uI9aPmYTFtMxoXuoT0aQQvqGh9tcTcuVDSHtvgmClowy2iLnKK4yAraox+0IB6hPVbgYoNoj6x60AKqeZz2+Bsu1oA22ZoILYC472iT+riYJ5U2+T9oAYyhTVI8uMRM2qUNtDzd5qdNZuBSD9IuKeWg5aFcCu3yAC5V1k+7LIZ2Kc8ntIu/DPKwgbYZAe0SI2ibdcjLy7RPV2gX6UX7DEdebqR9fHdAu0BHP+1zA/ISc5T2OdEQ2nlaZtM+6THI03zaKPVyaP/T8DhtNA95e4J2+qU0tP+qdYh2egx5q0JbrSsF7Q81dtNWlRHAVtpqa2Vo//HnVNpqMwIZSnvtqQUNLTJor78hkKp+2utQQxR4HbNpL/+fENBXtFnGrSjg+vhps+UI7BHaLes+FGSeV2m7hxBYkZO0W+6QKBRYRefSdhmFEcQs2u/Tsiig6u+g/aYhmBZ0wP6bUCB1z6QDmiKYqH10gG+QBwVOsbl0wm4PghpFR3xSBgXMn3fSEcMRXG06Y19LFCTRfbPojCuRj/V0yPsVUGA0+oEOWY38PE2nHO0ehQKh5BQ/ndIV+SmdTcesrY/I5+lykI7JLI58fUjn+MYWQYSrvYIOmoP83UMn7X0sBhGs3LgcOqk18heXRkdtv9+DCFVi5Ak66t8xCMFEOmzjnYhESYPT6bDRCEVDOu7bZog0Cc+k0nF1EJKNdN7nzRFJCvX4nc5bg9B0pGk5mVTlh06xiBDlX06jG7RDaGJ20bDto1v/tVbFwvBUavrU60t2+KnA3v7FEQGufjuLrrA9CiHqQYMm18SFqgzcTAUyxlZFmGv+Md3icYQqMZWG/B15qPvqXlrn+/i+eIStis9to2sciEfIhtCIw8hbVNPZflqXNqEBwlHcvYt9dJHnELqSGTTgFAK6bh1V+PGZMggz9cYdoqscLQYDxtCIaxFQ1KMpVMG3ol8thIvYpq/vpNuMghGVsmnAmigEVuz1HKqxffTNMXC9Eh3fTaf7ZFWAIdNoRG8Ec9UyqnL4g343FoJrVWj7yoocutKbMOYqPw04XhVB3b2L6uR8N6lzTQ9cJuH6PnN207Vya8KgD2nEJwiu6FyqdeSTYa1KwiWueHDCumy62nwY1YiGTI5CcL2zqdz26d0blYaToqveNnTJIbrfX2HYChoyNw7BNf6dIo5umDPi0ZsqeWCr+Fqte41b8nM2w8OXMK41jVmWhODKrKSgU1s+HNOt5eUxEJZUt91zUz7fncuw0grGeX6kMWtLI7hCyyguZ20xCGpygOFoI8x4kAbtaYLgEhZR2slGEPWEn2HoAZgR8xsNyh1ZCEHFzqMsXxsIe9zPsPNbDEx5kobtezgKwUS/T1GPQNyjfoabJ2FO9CYat/EGBBO/ioIGwQa9GGY2RcOkFjQhpy+CKbOLYibAFu8xvLSAaYtpxrwiCKL2UQqZGwVbJP3EcLIY5iXn0Ixt1RDEbT6K2F8UNql9nOEjJxkWjKcpe2ogiKEU8QBs8yDDx3hYUeoITdlXC4HFfE8BX8FGixkujpSCJc/QnH9fjcDqZFO5nGtgoyuyGCaegTWxv9Cc/ZchsBeo3FjYaiTDwy+xsKgtTfquEAKK3UjF/l0Utiq8l2GhLSz7nCbN9yCgBj6q1Qk268hw8Dmsq5tLk0YgsNep1Newm2cb3S+3LhR4i2a1Q0BJe6jS3bBdd7rfW1ChfAZNOlQBAd1JhQ7GwnZJ6XS7jPJQYhDN+hiBzac64+CAMXS7QVAjYTfN6oaALjtGZerDAdVz6W67E6DI/TTrRE0E1J2qbIIjFtPd7ocqnm9o1toYBDSHivSFIx6mq33jgTK1M2nWMARUeDOV8JWHI8rm0sUya0Oh/jTL91cEVOMIVVgMh6ymi/WHSlGradb2wgiotZ8KtIdDBtC9VkdBqStP0qxRCGworctNgkNq07VOXgnFetGsk5chIM9MWrYFjvmVbtULqnm+pFlTEFj0TFo1HY6ZTpf60gPlqmXQpJwrEVj0TFr0NBzTk+6UUQ0CutKsOQgieiataQzHNKI7dYWIT2mSvwGCiJ5JK3yF4JjEHLrRp5BROZ0mfYpgokf4ad4mOOgHulB6ZQh5mGY1RVCtD9O0d+CgN+lCD0PMIpq0EsFVXUezesBB3eg+iyCnQhpNaoDg4ifRpOvgoNZ0nbQKENSRJk1Hfm7fRjPWJcJB19J1OkLUBzQnqzzyE9v7CA069kY9OKok3eYDyCqTSnOGIX+lJ/lowPrHk+C0E3SX1DIQdg/NSYlHCK56I4Oh2Tq2AVzgZ7rLPRA3luZ0RkiKdt/C/KTM6nIZ3OEzuspYyItZQVO+R6humrjZzwCOfTenX10PXGMa3WRFDGxQbh9NuQGhK33PP9buzeRZuRkpu76b8/LDN5SHy4yji+wrB1s0yqIZ78KoItX+0rjulZVKJsC1RtE9shrBJk/RjOzyiDzD6B5PwTbTaMZQRJ6BdI1psE/CBpqwLwYR5xm6xYYE2KjKIZrQHhHnKbrEoSqw1a25NG5LLCJNF7pD7q2w2UCa0A+R5n66w0DYzTOfxh2vjAjjpSvM98B2RbbRuHmIMF66wbYicEDyMRp3GyKLly5wLBmOaEfjdpZARPHSBdrBIa/QuM9iEEm8dN4rcEr0Mhr3BiKJl45bFg3HFPuexj2NCOKl074vBgeV20HDfLchcnjpsB3l4KjqB2jYsVsQMbx01oHqcFiddBqW1RGRwktHpdeB45qcomH+5xAhvHTSqSZwgTt9NG5iFCKClw7y3QlXeJgmLCyNSOClgx6GS/SnCSl3IwJ46Zz+cI3XaMbMEgh7XjrmNbiHZxrN2N8a4c5Lp0zzwEViFtKUxfUQ3rx0yMIYuEriSprin1ML4cxLZ6xMhMsU/5Hm+KZdjvDlpSN+LA7XqfArTfIvf7AQwpSXTvi1Alyoxn6adnRKI4QlLx2wrwZcqfpOWrB/Ts+6UQg3XtpvZzW4VIXNtCZ9yctdbiiHUJW+5empjeEoL223qQJcq+QaKnDsu/eHd7m+LAJLSm7x2OhPD/A/7oGjvLTbtyXhYknLqcyxnd998eH08cP7P+lt1bRlm3s6dHqka89nh7yx+McjPKcdHOWlzT5LgqvFL6C92sNRXtprfjxcLmY6bXUfHOWlrd6Jhut5xtNOXjjKSzu97kE4eIk26ghHeWmjoQgTfWifB+AoL23j74mw8YiPdukER3lpl5xOCCP3ZtEmD8FRXtok8y6ElZYnaI8ucJSX9si4BWGm8RHa4hE4yktbHPoLws5V22mHR+EoL+2w5QqEoWILaYPH4SgvbfBBEsKSZ5if4p6Eo7wUlzvIg3B151FK6wpHeSntSCuEsZo/UVg3OMpLYZtqIKwV+RdldYejvJQ1NwlhzjM4l5J6wlFeSsodgAhw+xEK6gVHeSnocEtEhBqbKKc3HOWlnB+rI0IUnkMxfeAoL8W8XxiR47lcCukLR3kpxNcPEeXWNMroB0d5KSPtVkSYqiso4jk4yksRX1VFxInqfZICBsBRXgo42cuDSHTlaqr3NzjKS/VWXYEIFd0/k6oNhqO8VO1U3yhErqvWUbEhcJSXiq2phYgWMzibSj0PR3mpVOaAaES6Oj9QpWFwlJcqra+NAiD2xRyq8xIc5aU62UNiUDA02ExlXoajvFTm+zooMOJf8VGRkXCUl4rkDItFQXLdNqrxdzjKSzU21UcBk/j8CarwGhzlpQpHB8Sh4Kn4Ti6tGwNHeWmd742yKJjqfUHLxsJRXlq29GoUXHf9TIvGw1FeWrS1FQq02F5ptGQiHOWlJQe7xaCgKzEmmxZMgqO8tCDr1WLQgBrzad5kOMpL8+ZVh3ZGk/U0ayoc5aVZ626A9j+eh/bSnLfhKC/N+b2TB9r5Cg3NoBnT4CgvzcgYkgjtYiUGpdC46XCUl8alDCoBLS8JT+2gUTPhKC+N2tE1AVog0fdtoDGz4agONGZ9+yhoQTVfRiMmw1GtaMTSZtDyV/99H0P2AhxVlyHzvVsXWmgun3SKIXocjirDEJ2cUA1a6MoOP8yQ1ISzfmYo0oaVhmZMUp/fmb+f4LDRzN/uXoWhGRd73xIf8zEEDmvIfOQsbBcDzaQK/bYwmH2F4bQFDGbTs+WgWfLnCWkM6CE47qpsBnJoXH1o1sW1W5jDPI2DC3RhnnI+uicOmiLl+vzIS82JghsM46U2PlMWmlL1/3GQF8jsFwV36JTOCxwcWw+aerFtF2TzrIx5V8E1/jQznWdlL2gbC01ImTu7jZz50YwJL90eD1eJbfHi+BkfzRzZ7c4y0DRN0zRN0zRNc7H/B5My2wke0lCHAAAAAElFTkSuQmCC;" vertex="1" parent="1">
          <mxGeometry x="798" y="760" width="62" height="62" as="geometry" />
        </mxCell>
        <mxCell id="VEx_6JtmXYtKarDa4OtJ-30" value="" style="endArrow=classic;html=1;rounded=0;exitX=0;exitY=0.5;exitDx=0;exitDy=0;" edge="1" parent="1" source="VEx_6JtmXYtKarDa4OtJ-26" target="VEx_6JtmXYtKarDa4OtJ-31">
          <mxGeometry width="50" height="50" relative="1" as="geometry">
            <mxPoint x="670" y="810" as="sourcePoint" />
            <mxPoint x="720" y="760" as="targetPoint" />
          </mxGeometry>
        </mxCell>
        <mxCell id="VEx_6JtmXYtKarDa4OtJ-31" value="Eureka server" style="rounded=0;whiteSpace=wrap;html=1;" vertex="1" parent="1">
          <mxGeometry x="550" y="690" width="120" height="60" as="geometry" />
        </mxCell>
        <mxCell id="VEx_6JtmXYtKarDa4OtJ-32" value="" style="endArrow=classic;html=1;rounded=0;entryX=0.5;entryY=0;entryDx=0;entryDy=0;exitX=0.42;exitY=1;exitDx=0;exitDy=0;exitPerimeter=0;" edge="1" parent="1" source="VEx_6JtmXYtKarDa4OtJ-1" target="VEx_6JtmXYtKarDa4OtJ-31">
          <mxGeometry width="50" height="50" relative="1" as="geometry">
            <mxPoint x="470" y="700" as="sourcePoint" />
            <mxPoint x="520" y="650" as="targetPoint" />
          </mxGeometry>
        </mxCell>
        <mxCell id="VEx_6JtmXYtKarDa4OtJ-33" value="Register microservices" style="text;html=1;align=center;verticalAlign=middle;resizable=0;points=[];autosize=1;strokeColor=none;fillColor=none;" vertex="1" parent="1">
          <mxGeometry x="470" y="640" width="140" height="30" as="geometry" />
        </mxCell>
        <mxCell id="VEx_6JtmXYtKarDa4OtJ-34" value="&lt;b&gt;&lt;font style=&quot;font-size: 15px;&quot;&gt;Microservices&lt;/font&gt;&lt;/b&gt;" style="text;html=1;align=center;verticalAlign=middle;resizable=0;points=[];autosize=1;strokeColor=none;fillColor=none;" vertex="1" parent="1">
          <mxGeometry x="390" y="130" width="120" height="30" as="geometry" />
        </mxCell>
      </root>
    </mxGraphModel>
  </diagram>
</mxfile>
